<?xml version="1.0" encoding="UTF-8" standalone="no"?>
<!-- Created with Inkscape (http://www.inkscape.org/) -->

<svg
   xmlns:dc="http://purl.org/dc/elements/1.1/"
   xmlns:cc="http://creativecommons.org/ns#"
   xmlns:rdf="http://www.w3.org/1999/02/22-rdf-syntax-ns#"
   xmlns:svg="http://www.w3.org/2000/svg"
   xmlns="http://www.w3.org/2000/svg"
   xmlns:xlink="http://www.w3.org/1999/xlink"
   xmlns:sodipodi="http://sodipodi.sourceforge.net/DTD/sodipodi-0.dtd"
   xmlns:inkscape="http://www.inkscape.org/namespaces/inkscape"
   width="210mm"
   height="297mm"
   viewBox="0 0 210 297"
   version="1.1"
   id="svg8"
   inkscape:version="0.92.3 (2405546, 2018-03-11)"
   sodipodi:docname="Logotipo.svg">
  <defs
     id="defs2">
    <linearGradient
       inkscape:collect="always"
       id="linearGradient4644">
      <stop
         style="stop-color:#ffcc00;stop-opacity:1;"
         offset="0"
         id="stop4640" />
      <stop
         style="stop-color:#ffcc00;stop-opacity:0;"
         offset="1"
         id="stop4642" />
    </linearGradient>
    <linearGradient
       inkscape:collect="always"
       xlink:href="#linearGradient4644"
       id="linearGradient4646"
       x1="29.727003"
       y1="91.596794"
       x2="91.769165"
       y2="155.47478"
       gradientUnits="userSpaceOnUse"
       gradientTransform="matrix(0.9068881,0,0,0.9068881,-0.30378978,127.26181)" />
    <linearGradient
       inkscape:collect="always"
       xlink:href="#linearGradient4644"
       id="linearGradient4052"
       gradientUnits="userSpaceOnUse"
       gradientTransform="matrix(0.68016609,0,0,0.68016609,48.851594,55.941357)"
       x1="29.727003"
       y1="91.596794"
       x2="91.769165"
       y2="155.47478" />
    <linearGradient
       inkscape:collect="always"
       xlink:href="#linearGradient4644"
       id="linearGradient4052-4"
       gradientUnits="userSpaceOnUse"
       gradientTransform="matrix(0.68016609,0,0,0.68016609,7.3204292,26.44522)"
       x1="29.727003"
       y1="91.596794"
       x2="91.769165"
       y2="155.47478" />
    <linearGradient
       inkscape:collect="always"
       xlink:href="#linearGradient4644"
       id="linearGradient4052-4-0"
       gradientUnits="userSpaceOnUse"
       gradientTransform="matrix(2.5707065,0,0,2.5707065,27.667764,99.950438)"
       x1="29.727003"
       y1="91.596794"
       x2="91.769165"
       y2="155.47478" />
    <linearGradient
       inkscape:collect="always"
       xlink:href="#linearGradient4644"
       id="linearGradient4425"
       gradientUnits="userSpaceOnUse"
       gradientTransform="matrix(0.9068881,0,0,0.9068881,-0.30378978,127.26181)"
       x1="29.727003"
       y1="91.596794"
       x2="91.769165"
       y2="155.47478" />
  </defs>
  <sodipodi:namedview
     id="base"
     pagecolor="#ffffff"
     bordercolor="#666666"
     borderopacity="1.0"
     inkscape:pageopacity="0.0"
     inkscape:pageshadow="2"
     inkscape:zoom="0.35"
     inkscape:cx="-777.27791"
     inkscape:cy="293.99171"
     inkscape:document-units="mm"
     inkscape:current-layer="layer1"
     showgrid="false"
     inkscape:window-width="1284"
     inkscape:window-height="745"
     inkscape:window-x="74"
     inkscape:window-y="-8"
     inkscape:window-maximized="1" />
  <metadata
     id="metadata5">
    <rdf:RDF>
      <cc:Work
         rdf:about="">
        <dc:format>image/svg+xml</dc:format>
        <dc:type
           rdf:resource="http://purl.org/dc/dcmitype/StillImage" />
        <dc:title />
      </cc:Work>
    </rdf:RDF>
  </metadata>
  <g
     inkscape:label="Camada 1"
     inkscape:groupmode="layer"
     id="layer1">
    <g
       id="g4937"
       transform="matrix(0.87696776,0,0,0.70157479,90.641414,65.701084)"
       inkscape:export-filename="D:\Git\MYNDBE\Web\Mysys\Myndbe\Images\background.png"
       inkscape:export-xdpi="102.62627"
       inkscape:export-ydpi="102.62627">
      <path
         style="fill:#eeeeee;stroke-width:0.35277778"
         d="M -667.80219,118.01866 V -93.64801 h 282.2222 282.2222 v 211.66667 211.66667 h -282.2222 -282.2222 z"
         id="path4943"
         inkscape:connector-curvature="0" />
      <path
         style="fill:#fdd01b;fill-opacity:1;stroke-width:0.35277778"
         d="m -667.78933,326.24575 0.0129,-3.43959 4.66144,-3.582 c 29.68121,-22.80786 40.04878,-30.95847 51.05172,-40.13507 15.3946,-12.83927 24.83213,-21.45028 38.66175,-35.27587 16.84433,-16.83941 26.38538,-27.76754 39.75765,-45.53761 11.28926,-15.00201 17.64635,-22.69053 25.64897,-31.02087 20.68554,-21.53263 39.36335,-34.33098 60.85523,-41.69902 11.27086,-3.86397 21.28391,-5.62103 34.21944,-6.00471 22.40289,-0.66449 46.59084,4.47215 79.19861,16.81888 12.61752,4.77755 23.5737,9.36179 52.03472,21.77216 38.41231,16.7496 55.65951,23.74418 77.6111,31.47504 33.67659,11.86016 68.99109,20.39438 98.68958,23.84964 l 2.02847,0.23601 v 57.99128 57.99131 h -282.2222 -282.2222 z"
         id="path4941"
         inkscape:connector-curvature="0" />
      <path
         style="fill:#2b292b;stroke-width:0.35277778"
         d="m -667.79471,326.77491 0.007,-2.91041 5.19599,-3.41165 c 22.96461,-15.07842 30.23054,-19.88396 37.35408,-24.70538 23.67652,-16.02486 43.71939,-31.44869 61.32802,-47.19449 7.47129,-6.68091 22.42103,-21.71467 28.58057,-28.7412 14.86694,-16.95957 24.71569,-26.71922 36.36927,-36.04025 21.95352,-17.55935 44.7591,-27.9698 69.07455,-31.5316 7.96337,-1.16651 14.58467,-1.52682 24.02004,-1.3071 25.42834,0.59213 51.43405,6.57223 93.13333,21.41631 4.46263,1.58861 18.19451,6.6192 30.51527,11.17908 25.70723,9.51419 37.04851,13.59676 49.74166,17.90572 45.12906,15.32 84.84743,24.63611 123.56041,28.98162 l 5.55625,0.62369 v 49.32305 49.32303 h -282.2222 -282.2222 z"
         id="path4939"
         inkscape:connector-curvature="0" />
    </g>
    <rect
       y="-112.30441"
       x="65.978645"
       height="69.489998"
       width="69.489998"
       id="rect5136"
       style="opacity:1;fill:none;stroke:none;stroke-width:0.850357;stroke-miterlimit:4;stroke-dasharray:none;stroke-opacity:1" />
    <g
       id="g4050"
       transform="matrix(1.4345487,0,0,1.4345487,-73.832737,-156.50481)">
      <rect
         y="109.09689"
         x="51.467571"
         height="69.708336"
         width="69.708336"
         id="rect4034"
         style="opacity:1;fill:none;stroke:none;stroke-width:0.50864393;stroke-miterlimit:4;stroke-dasharray:none;stroke-opacity:1"
         inkscape:export-xdpi="186.56"
         inkscape:export-ydpi="186.56" />
      <g
         id="g4048">
        <g
           id="g4040">
          <circle
             r="32.282753"
             cy="143.95105"
             cx="86.699715"
             id="circle4036"
             style="fill:url(#linearGradient4052);fill-opacity:1;stroke:none;stroke-width:0.29012853;stroke-miterlimit:4;stroke-dasharray:none;stroke-opacity:1" />
          <circle
             r="32.282753"
             cy="143.95105"
             cx="86.321739"
             id="circle4038"
             style="fill:none;fill-opacity:1;stroke:#000000;stroke-width:0.79000002;stroke-miterlimit:4;stroke-dasharray:none;stroke-opacity:1" />
        </g>
        <g
           id="g4046">
          <path
             style="fill:#000000;stroke-width:0.26458335"
             d="m 75.272961,146.91191 c -0.47427,-0.28917 -1.10139,-0.9138 -1.39359,-1.38807 -0.50903,-0.8262 -0.52832,-1.24633 -0.4606,-10.03241 l 0.0707,-9.17008 0.81256,-1.01637 c 1.376,-1.72114 2.10203,-1.94154 6.39733,-1.942 l 3.77031,-4.2e-4 v -2.20283 c 0,-1.96051 0.0674,-2.26613 0.61237,-2.77813 0.79444,-0.74634 1.79437,-0.7316 2.51651,0.0371 0.49394,0.52577 0.57529,0.91864 0.57529,2.77813 v 2.16576 l 3.77031,4.2e-4 c 4.295292,4.8e-4 5.021322,0.22086 6.397332,1.942 l 0.81257,1.01637 0.0707,9.17009 c 0.0677,8.78608 0.0484,9.2062 -0.4606,10.0324 -0.29221,0.47428 -0.91933,1.09891 -1.3936,1.38808 -0.82103,0.50059 -1.35001,0.52575 -11.048772,0.52575 -9.69877,0 -10.22775,-0.0252 -11.04878,-0.52575 z m 7.34461,-5.95455 v -0.92604 h -1.85208 -1.85209 v 0.92604 0.92604 h 1.85209 1.85208 z m 5.55625,0 v -0.92604 h -1.85208 -1.85209 v 0.92604 0.92604 h 1.85209 1.85208 z m 5.556252,0 v -0.92604 h -1.852082 -1.85209 v 0.92604 0.92604 h 1.85209 1.852082 z M 81.654451,134.6399 c 1.85489,-0.77502 1.84966,-3.261 -0.009,-4.03739 -0.75179,-0.31412 -1.00913,-0.31412 -1.76092,0 -1.82262,0.76154 -1.86358,3.24378 -0.0665,4.0263 1.01082,0.44014 0.8119,0.43894 1.83588,0.0111 z m 11.112502,0 c 1.85489,-0.77502 1.84966,-3.261 -0.008,-4.03739 -0.751802,-0.31412 -1.009142,-0.31412 -1.760932,0 -1.82261,0.76154 -1.86358,3.24378 -0.0664,4.0263 1.01081,0.44014 0.8119,0.43894 1.835872,0.0111 z m -24.390762,6.63113 c -0.54271,-0.57768 -0.57529,-0.85976 -0.57529,-4.98096 0,-4.22434 0.0202,-4.38759 0.61237,-4.94388 0.44886,-0.42168 0.94338,-0.57529 1.85208,-0.57529 h 1.23972 v 5.55625 5.55625 h -1.2768 c -0.99252,0 -1.40488,-0.13634 -1.85208,-0.61237 z m 32.762229,-4.94388 v -5.55625 h 1.27679 c 0.99252,0 1.40488,0.13634 1.85209,0.61236 0.5427,0.57769 0.57528,0.85977 0.57528,4.98097 0,4.22434 -0.0202,4.38759 -0.61236,4.94388 -0.44886,0.42168 -0.94339,0.57529 -1.85209,0.57529 h -1.23971 z"
             id="path4042"
             inkscape:connector-curvature="0" />
          <path
             style="fill:#000000;stroke-width:0.21551417"
             d="m 95.575293,150.20942 -4.034895,0.0589 -4.035412,0.0584 -0.06821,0.59273 c -0.04724,0.41059 -0.191484,0.59273 -0.470255,0.59273 -0.27877,0 -0.423571,-0.18214 -0.470773,-0.59273 l -0.06821,-0.59273 -3.63492,-0.0594 c -3.781221,-0.0616 -4.231267,0.0281 -4.231267,0.84026 0,0.64298 -0.609862,0.47582 -0.686263,-0.1881 l -0.06821,-0.59273 -4.929415,-0.0579 c -5.100629,-0.06 -5.522661,0.003 -5.522661,0.82063 0,0.21266 -0.09416,0.41886 -0.209288,0.45836 -0.0014,4.7e-4 -0.0032,0.006 -0.0047,0.007 h -1.784347 l -1.492933,12.24163 h 1.531689 1.626258 c 1.55992,0 1.626257,0.0204 1.626257,0.50281 0,0.27658 0.06466,0.56799 0.14366,0.64699 0.07903,0.079 1.029417,0.14366 2.112016,0.14366 2.030431,0 2.485636,-0.16597 2.485636,-0.90537 0,-0.34253 0.210293,-0.38757 1.79524,-0.38757 1.72299,0 1.794169,0.0193 1.777669,0.48472 -0.01705,0.48316 -0.0035,0.48504 3.810619,0.54364 l 3.827674,0.0589 0.248047,-0.54363 c 0.307361,-0.67462 0.772131,-0.70628 0.864032,-0.0589 0.06617,0.46591 0.152746,0.48473 2.223635,0.48473 2.07088,0 2.158055,-0.0188 2.224153,-0.48473 0.0682,-0.4799 0.103558,-0.48472 3.569809,-0.48472 h 3.500562 l 0.619601,0.64647 0.619082,0.64647 h 2.931087 2.93109 l 0.74621,-0.63768 c 0.51687,-0.4418 0.98355,-0.64048 1.51774,-0.64648 l 0.77101,-0.009 h 1.35702 l 1.49293,-12.24163 h -1.50068 c -0.1192,-0.0315 -0.30294,-0.0424 -0.57878,-0.0424 -0.6627,0 -0.96299,-0.1375 -1.41697,-0.64699 l -0.57619,-0.64647 h -2.96984 -2.96933 l -0.74621,0.63768 c -0.585621,0.50056 -0.958792,0.63999 -1.734262,0.64699 -0.833519,0.007 -1.078859,-0.0935 -1.568378,-0.64285 z m -14.220838,0.65268 c 0.354423,6.8e-4 0.763913,0.004 1.238168,0.004 h 3.356385 l -0.135908,1.1312 c -0.07468,0.62229 -0.137158,1.34975 -0.137978,1.61644 -0.0017,0.43072 -0.110006,0.48473 -0.971515,0.48473 -0.648801,0 -0.969968,0.0923 -0.969968,0.27853 0,0.33444 -0.602427,5.18562 -0.748274,6.02547 -0.09898,0.57006 -0.06794,0.59273 0.81597,0.59273 h 0.919324 l -0.201022,1.72393 -0.200504,1.72392 H 80.88265 77.445652 l 0.127122,-0.86196 c 0.06969,-0.47413 0.183515,-1.2498 0.253216,-1.72392 0.122757,-0.83526 0.152707,-0.86197 0.960147,-0.86197 0.77198,0 0.842095,-0.0519 0.952913,-0.70073 0.09721,-0.56925 0.761711,-5.92191 0.761711,-6.13554 0,-0.0332 -0.394806,-0.0605 -0.877467,-0.0605 H 78.74583 l 0.141076,-1.2392 c 0.216292,-1.90205 -0.0134,-2.00157 2.467549,-1.99678 z m 6.574793,0.003 3.774964,0.004 3.774963,0.004 0.665592,0.80408 0.665593,0.80409 -0.291454,2.4784 -0.291457,2.4784 -0.954463,0.91622 -0.953948,0.91571 h -2.05982 c -1.132973,0 -2.06306,0.0729 -2.067058,0.16175 -0.0038,0.0889 -0.14597,1.18006 -0.316262,2.42466 -0.170254,1.24432 -0.312718,2.33484 -0.316775,2.42414 -0.0038,0.0889 -0.746463,0.16175 -1.651063,0.16174 h -1.644859 l 0.122989,-0.9157 c 0.0677,-0.50377 0.442484,-3.55872 0.833025,-6.78874 z m 18.110012,0.008 0.68781,0.82837 c 0.64312,0.77471 0.67996,0.90824 0.56276,2.0438 l -0.12558,1.2144 h -1.6738 c -1.56807,0 -1.66671,-0.0273 -1.56114,-0.43098 0.10364,-0.39632 0.007,-0.43098 -1.2051,-0.43098 -1.22246,0 -1.31936,0.0356 -1.32136,0.48524 -0.002,0.2667 -0.0614,0.70275 -0.13281,0.96945 -0.12845,0.47891 -0.10465,0.48524 2.03243,0.48524 h 2.16214 l 0.67335,0.85059 0.67386,0.8506 -0.3328,2.53834 -0.33279,2.53783 -0.91571,0.8046 v 0.002 l -0.91519,0.80408 -2.90938,-0.009 -2.909387,-0.009 -0.689364,-0.80305 c -0.647512,-0.75511 -0.681119,-0.87751 -0.562239,-2.02933 l 0.126605,-1.22577 h 1.669667 c 1.458218,0 1.666408,0.0479 1.640218,0.37724 -0.0248,0.31223 0.18333,0.38834 1.20922,0.44183 1.16745,0.0609 1.2403,0.036 1.2423,-0.43098 0.002,-0.27262 0.0614,-0.71411 0.13281,-0.98081 0.12839,-0.47892 0.1041,-0.48473 -2.01435,-0.48473 h -2.144052 l -0.67903,-0.84491 -0.679026,-0.84491 0.331761,-2.5492 0.332279,-2.54971 0.903304,-0.79892 0.903824,-0.79892 2.90938,-0.006 z m -36.73058,0.0176 c 0.864751,0 2.050351,0.008 3.348117,0.0243 l 4.71909,0.0579 -0.181901,1.5627 -0.181901,1.56218 H 75.552743 74.0934 l -0.614432,5.17229 -0.614949,5.17229 h -1.887223 -1.887225 l 0.10542,-0.59221 c 0.09671,-0.5425 1.176674,-9.39367 1.176674,-9.64386 0,-0.0597 -0.640154,-0.10851 -1.422654,-0.10851 h -1.422652 l 0.153996,-1.56218 c 0.08458,-0.85936 0.177173,-1.58868 0.205674,-1.62058 0.01427,-0.0159 0.5579,-0.0243 1.422651,-0.0243 z m 22.758818,3.20704 c -1.171861,0 -1.173713,0.001 -1.315683,0.75809 -0.0785,0.41688 -0.08077,0.85795 -0.0052,0.9803 h 5.15e-4 c 0.07561,0.12237 0.637826,0.19353 1.249538,0.15813 l 1.112075,-0.0646 0.06615,-0.91571 0.06666,-0.91622 z"
             id="path4044"
             inkscape:connector-curvature="0" />
        </g>
      </g>
    </g>
    <g
       id="g4032"
       transform="matrix(1.4345487,0,0,1.4345487,36.16726,-156.50481)"
       inkscape:export-xdpi="186.56"
       inkscape:export-ydpi="186.56">
      <rect
         inkscape:export-ydpi="186.56"
         inkscape:export-xdpi="186.56"
         style="opacity:1;fill:none;stroke:none;stroke-width:0.50864393;stroke-miterlimit:4;stroke-dasharray:none;stroke-opacity:1"
         id="rect4698"
         width="69.708336"
         height="69.708336"
         x="51.467571"
         y="109.09689" />
      <g
         id="g4022">
        <g
           id="g4014">
          <circle
             style="fill:none;fill-opacity:1;stroke:#000000;stroke-width:0.79000002;stroke-miterlimit:4;stroke-dasharray:none;stroke-opacity:1"
             id="circle5138-8"
             cx="86.321739"
             cy="143.95105"
             r="32.282753" />
        </g>
        <g
           id="g4010">
          <path
             inkscape:connector-curvature="0"
             id="path3882"
             d="m 75.272961,146.91191 c -0.47427,-0.28917 -1.10139,-0.9138 -1.39359,-1.38807 -0.50903,-0.8262 -0.52832,-1.24633 -0.4606,-10.03241 l 0.0707,-9.17008 0.81256,-1.01637 c 1.376,-1.72114 2.10203,-1.94154 6.39733,-1.942 l 3.77031,-4.2e-4 v -2.20283 c 0,-1.96051 0.0674,-2.26613 0.61237,-2.77813 0.79444,-0.74634 1.79437,-0.7316 2.51651,0.0371 0.49394,0.52577 0.57529,0.91864 0.57529,2.77813 v 2.16576 l 3.77031,4.2e-4 c 4.295292,4.8e-4 5.021322,0.22086 6.397332,1.942 l 0.81257,1.01637 0.0707,9.17009 c 0.0677,8.78608 0.0484,9.2062 -0.4606,10.0324 -0.29221,0.47428 -0.91933,1.09891 -1.3936,1.38808 -0.82103,0.50059 -1.35001,0.52575 -11.048772,0.52575 -9.69877,0 -10.22775,-0.0252 -11.04878,-0.52575 z m 7.34461,-5.95455 v -0.92604 h -1.85208 -1.85209 v 0.92604 0.92604 h 1.85209 1.85208 z m 5.55625,0 v -0.92604 h -1.85208 -1.85209 v 0.92604 0.92604 h 1.85209 1.85208 z m 5.556252,0 v -0.92604 h -1.852082 -1.85209 v 0.92604 0.92604 h 1.85209 1.852082 z M 81.654451,134.6399 c 1.85489,-0.77502 1.84966,-3.261 -0.009,-4.03739 -0.75179,-0.31412 -1.00913,-0.31412 -1.76092,0 -1.82262,0.76154 -1.86358,3.24378 -0.0665,4.0263 1.01082,0.44014 0.8119,0.43894 1.83588,0.0111 z m 11.112502,0 c 1.85489,-0.77502 1.84966,-3.261 -0.008,-4.03739 -0.751802,-0.31412 -1.009142,-0.31412 -1.760932,0 -1.82261,0.76154 -1.86358,3.24378 -0.0664,4.0263 1.01081,0.44014 0.8119,0.43894 1.835872,0.0111 z m -24.390762,6.63113 c -0.54271,-0.57768 -0.57529,-0.85976 -0.57529,-4.98096 0,-4.22434 0.0202,-4.38759 0.61237,-4.94388 0.44886,-0.42168 0.94338,-0.57529 1.85208,-0.57529 h 1.23972 v 5.55625 5.55625 h -1.2768 c -0.99252,0 -1.40488,-0.13634 -1.85208,-0.61237 z m 32.762229,-4.94388 v -5.55625 h 1.27679 c 0.99252,0 1.40488,0.13634 1.85209,0.61236 0.5427,0.57769 0.57528,0.85977 0.57528,4.98097 0,4.22434 -0.0202,4.38759 -0.61236,4.94388 -0.44886,0.42168 -0.94339,0.57529 -1.85209,0.57529 h -1.23971 z"
             style="fill:#000000;stroke-width:0.26458335" />
          <path
             inkscape:connector-curvature="0"
             id="path3961"
             d="m 95.575293,150.20942 -4.034895,0.0589 -4.035412,0.0584 -0.06821,0.59273 c -0.04724,0.41059 -0.191484,0.59273 -0.470255,0.59273 -0.27877,0 -0.423571,-0.18214 -0.470773,-0.59273 l -0.06821,-0.59273 -3.63492,-0.0594 c -3.781221,-0.0616 -4.231267,0.0281 -4.231267,0.84026 0,0.64298 -0.609862,0.47582 -0.686263,-0.1881 l -0.06821,-0.59273 -4.929415,-0.0579 c -5.100629,-0.06 -5.522661,0.003 -5.522661,0.82063 0,0.21266 -0.09416,0.41886 -0.209288,0.45836 -0.0014,4.7e-4 -0.0032,0.006 -0.0047,0.007 h -1.784347 l -1.492933,12.24163 h 1.531689 1.626258 c 1.55992,0 1.626257,0.0204 1.626257,0.50281 0,0.27658 0.06466,0.56799 0.14366,0.64699 0.07903,0.079 1.029417,0.14366 2.112016,0.14366 2.030431,0 2.485636,-0.16597 2.485636,-0.90537 0,-0.34253 0.210293,-0.38757 1.79524,-0.38757 1.72299,0 1.794169,0.0193 1.777669,0.48472 -0.01705,0.48316 -0.0035,0.48504 3.810619,0.54364 l 3.827674,0.0589 0.248047,-0.54363 c 0.307361,-0.67462 0.772131,-0.70628 0.864032,-0.0589 0.06617,0.46591 0.152746,0.48473 2.223635,0.48473 2.07088,0 2.158055,-0.0188 2.224153,-0.48473 0.0682,-0.4799 0.103558,-0.48472 3.569809,-0.48472 h 3.500562 l 0.619601,0.64647 0.619082,0.64647 h 2.931087 2.93109 l 0.74621,-0.63768 c 0.51687,-0.4418 0.98355,-0.64048 1.51774,-0.64648 l 0.77101,-0.009 h 1.35702 l 1.49293,-12.24163 h -1.50068 c -0.1192,-0.0315 -0.30294,-0.0424 -0.57878,-0.0424 -0.6627,0 -0.96299,-0.1375 -1.41697,-0.64699 l -0.57619,-0.64647 h -2.96984 -2.96933 l -0.74621,0.63768 c -0.585621,0.50056 -0.958792,0.63999 -1.734262,0.64699 -0.833519,0.007 -1.078859,-0.0935 -1.568378,-0.64285 z m -14.220838,0.65268 c 0.354423,6.8e-4 0.763913,0.004 1.238168,0.004 h 3.356385 l -0.135908,1.1312 c -0.07468,0.62229 -0.137158,1.34975 -0.137978,1.61644 -0.0017,0.43072 -0.110006,0.48473 -0.971515,0.48473 -0.648801,0 -0.969968,0.0923 -0.969968,0.27853 0,0.33444 -0.602427,5.18562 -0.748274,6.02547 -0.09898,0.57006 -0.06794,0.59273 0.81597,0.59273 h 0.919324 l -0.201022,1.72393 -0.200504,1.72392 H 80.88265 77.445652 l 0.127122,-0.86196 c 0.06969,-0.47413 0.183515,-1.2498 0.253216,-1.72392 0.122757,-0.83526 0.152707,-0.86197 0.960147,-0.86197 0.77198,0 0.842095,-0.0519 0.952913,-0.70073 0.09721,-0.56925 0.761711,-5.92191 0.761711,-6.13554 0,-0.0332 -0.394806,-0.0605 -0.877467,-0.0605 H 78.74583 l 0.141076,-1.2392 c 0.216292,-1.90205 -0.0134,-2.00157 2.467549,-1.99678 z m 6.574793,0.003 3.774964,0.004 3.774963,0.004 0.665592,0.80408 0.665593,0.80409 -0.291454,2.4784 -0.291457,2.4784 -0.954463,0.91622 -0.953948,0.91571 h -2.05982 c -1.132973,0 -2.06306,0.0729 -2.067058,0.16175 -0.0038,0.0889 -0.14597,1.18006 -0.316262,2.42466 -0.170254,1.24432 -0.312718,2.33484 -0.316775,2.42414 -0.0038,0.0889 -0.746463,0.16175 -1.651063,0.16174 h -1.644859 l 0.122989,-0.9157 c 0.0677,-0.50377 0.442484,-3.55872 0.833025,-6.78874 z m 18.110012,0.008 0.68781,0.82837 c 0.64312,0.77471 0.67996,0.90824 0.56276,2.0438 l -0.12558,1.2144 h -1.6738 c -1.56807,0 -1.66671,-0.0273 -1.56114,-0.43098 0.10364,-0.39632 0.007,-0.43098 -1.2051,-0.43098 -1.22246,0 -1.31936,0.0356 -1.32136,0.48524 -0.002,0.2667 -0.0614,0.70275 -0.13281,0.96945 -0.12845,0.47891 -0.10465,0.48524 2.03243,0.48524 h 2.16214 l 0.67335,0.85059 0.67386,0.8506 -0.3328,2.53834 -0.33279,2.53783 -0.91571,0.8046 v 0.002 l -0.91519,0.80408 -2.90938,-0.009 -2.909387,-0.009 -0.689364,-0.80305 c -0.647512,-0.75511 -0.681119,-0.87751 -0.562239,-2.02933 l 0.126605,-1.22577 h 1.669667 c 1.458218,0 1.666408,0.0479 1.640218,0.37724 -0.0248,0.31223 0.18333,0.38834 1.20922,0.44183 1.16745,0.0609 1.2403,0.036 1.2423,-0.43098 0.002,-0.27262 0.0614,-0.71411 0.13281,-0.98081 0.12839,-0.47892 0.1041,-0.48473 -2.01435,-0.48473 h -2.144052 l -0.67903,-0.84491 -0.679026,-0.84491 0.331761,-2.5492 0.332279,-2.54971 0.903304,-0.79892 0.903824,-0.79892 2.90938,-0.006 z m -36.73058,0.0176 c 0.864751,0 2.050351,0.008 3.348117,0.0243 l 4.71909,0.0579 -0.181901,1.5627 -0.181901,1.56218 H 75.552743 74.0934 l -0.614432,5.17229 -0.614949,5.17229 h -1.887223 -1.887225 l 0.10542,-0.59221 c 0.09671,-0.5425 1.176674,-9.39367 1.176674,-9.64386 0,-0.0597 -0.640154,-0.10851 -1.422654,-0.10851 h -1.422652 l 0.153996,-1.56218 c 0.08458,-0.85936 0.177173,-1.58868 0.205674,-1.62058 0.01427,-0.0159 0.5579,-0.0243 1.422651,-0.0243 z m 22.758818,3.20704 c -1.171861,0 -1.173713,0.001 -1.315683,0.75809 -0.0785,0.41688 -0.08077,0.85795 -0.0052,0.9803 h 5.15e-4 c 0.07561,0.12237 0.637826,0.19353 1.249538,0.15813 l 1.112075,-0.0646 0.06615,-0.91571 0.06666,-0.91622 z"
             style="fill:#000000;stroke-width:0.21551417" />
        </g>
      </g>
    </g>
    <g
       id="g4151"
       transform="matrix(1.5488146,0,0,1.5488146,-19.957708,-28.769436)">
      <circle
         style="fill:url(#linearGradient4052-4);fill-opacity:1;stroke:none;stroke-width:0.29012853;stroke-miterlimit:4;stroke-dasharray:none;stroke-opacity:1"
         id="circle4036-3"
         cx="45.168549"
         cy="114.45491"
         r="32.282753" />
      <path
         inkscape:connector-curvature="0"
         id="path4095"
         d="m 34.073527,124.98955 c -0.47427,-0.28917 -1.10139,-0.9138 -1.39359,-1.38807 -0.50903,-0.8262 -0.52832,-1.24633 -0.4606,-10.03241 l 0.0707,-9.17008 0.81256,-1.01637 c 1.376,-1.72114 2.10203,-1.94154 6.39733,-1.942 l 3.770307,-4.2e-4 v -2.202828 c 0,-1.96051 0.0674,-2.26613 0.61237,-2.77813 0.79444,-0.74634 1.79437,-0.7316 2.51651,0.0371 0.49394,0.52577 0.57529,0.91864 0.57529,2.77813 v 2.165758 l 3.77032,4.2e-4 c 4.29529,4.8e-4 5.02132,0.22086 6.39733,1.942 l 0.81257,1.01637 0.0707,9.17009 c 0.0677,8.78608 0.0484,9.2062 -0.4606,10.0324 -0.29221,0.47428 -0.91933,1.09891 -1.3936,1.38808 -0.82103,0.50059 -1.35001,0.52575 -11.04878,0.52575 -9.698767,0 -10.227747,-0.0252 -11.048777,-0.52575 z m 7.34461,-5.95455 v -0.92604 h -1.85208 -1.85209 v 0.92604 0.92604 h 1.85209 1.85208 z m 5.556247,0 v -0.92604 h -1.85208 -1.85209 v 0.92604 0.92604 h 1.85209 1.85208 z m 5.55626,0 v -0.92604 h -1.85208 -1.85209 v 0.92604 0.92604 h 1.85209 1.85208 z m -12.075627,-6.31746 c 1.854887,-0.77502 1.849657,-3.261 -0.009,-4.03739 -0.75179,-0.31412 -1.00913,-0.31412 -1.76092,0 -1.82262,0.76154 -1.86358,3.24378 -0.0665,4.0263 1.01082,0.44014 0.8119,0.43894 1.83588,0.0111 z m 11.112507,0 c 1.85489,-0.77502 1.84966,-3.261 -0.008,-4.03739 -0.7518,-0.31412 -1.00914,-0.31412 -1.76093,0 -1.82261,0.76154 -1.86358,3.24378 -0.0664,4.0263 1.01081,0.44014 0.8119,0.43894 1.83587,0.0111 z m -24.390767,6.63113 c -0.54271,-0.57768 -0.57529,-0.85976 -0.57529,-4.98096 0,-4.22434 0.0202,-4.38759 0.61237,-4.94388 0.44886,-0.42168 0.94338,-0.57529 1.85208,-0.57529 h 1.23972 v 5.55625 5.55625 h -1.2768 c -0.99252,0 -1.40488,-0.13634 -1.85208,-0.61237 z m 32.762237,-4.94388 v -5.55625 h 1.27679 c 0.99252,0 1.40488,0.13634 1.85209,0.61236 0.5427,0.57769 0.57528,0.85977 0.57528,4.98097 0,4.22434 -0.0202,4.38759 -0.61236,4.94388 -0.44886,0.42168 -0.94339,0.57529 -1.85209,0.57529 h -1.23971 z"
         style="fill:#000000;stroke-width:0.26458335" />
    </g>
    <g
       id="g4132"
       transform="matrix(2.5148714,0,0,2.5148714,46.523847,-136.82821)">
      <path
         id="circle4036-3-7"
         transform="scale(0.26458333)"
         d="M 95.398438,353.66797 V 503.95508 H 245.68359 V 353.66797 Z"
         style="fill:url(#linearGradient4052-4-0);fill-opacity:1;stroke:none;stroke-width:1.0965488;stroke-miterlimit:4;stroke-dasharray:none;stroke-opacity:1"
         inkscape:connector-curvature="0" />
      <path
         inkscape:connector-curvature="0"
         id="path4095-2"
         d="m 34.073527,124.98955 c -0.47427,-0.28917 -1.10139,-0.9138 -1.39359,-1.38807 -0.50903,-0.8262 -0.52832,-1.24633 -0.4606,-10.03241 l 0.0707,-9.17008 0.81256,-1.01637 c 1.376,-1.72114 2.10203,-1.94154 6.39733,-1.942 l 3.770307,-4.2e-4 v -2.202828 c 0,-1.96051 0.0674,-2.26613 0.61237,-2.77813 0.79444,-0.74634 1.79437,-0.7316 2.51651,0.0371 0.49394,0.52577 0.57529,0.91864 0.57529,2.77813 v 2.165758 l 3.77032,4.2e-4 c 4.29529,4.8e-4 5.02132,0.22086 6.39733,1.942 l 0.81257,1.01637 0.0707,9.17009 c 0.0677,8.78608 0.0484,9.2062 -0.4606,10.0324 -0.29221,0.47428 -0.91933,1.09891 -1.3936,1.38808 -0.82103,0.50059 -1.35001,0.52575 -11.04878,0.52575 -9.698767,0 -10.227747,-0.0252 -11.048777,-0.52575 z m 7.34461,-5.95455 v -0.92604 h -1.85208 -1.85209 v 0.92604 0.92604 h 1.85209 1.85208 z m 5.556247,0 v -0.92604 h -1.85208 -1.85209 v 0.92604 0.92604 h 1.85209 1.85208 z m 5.55626,0 v -0.92604 h -1.85208 -1.85209 v 0.92604 0.92604 h 1.85209 1.85208 z m -12.075627,-6.31746 c 1.854887,-0.77502 1.849657,-3.261 -0.009,-4.03739 -0.75179,-0.31412 -1.00913,-0.31412 -1.76092,0 -1.82262,0.76154 -1.86358,3.24378 -0.0665,4.0263 1.01082,0.44014 0.8119,0.43894 1.83588,0.0111 z m 11.112507,0 c 1.85489,-0.77502 1.84966,-3.261 -0.008,-4.03739 -0.7518,-0.31412 -1.00914,-0.31412 -1.76093,0 -1.82261,0.76154 -1.86358,3.24378 -0.0664,4.0263 1.01081,0.44014 0.8119,0.43894 1.83587,0.0111 z m -24.390767,6.63113 c -0.54271,-0.57768 -0.57529,-0.85976 -0.57529,-4.98096 0,-4.22434 0.0202,-4.38759 0.61237,-4.94388 0.44886,-0.42168 0.94338,-0.57529 1.85208,-0.57529 h 1.23972 v 5.55625 5.55625 h -1.2768 c -0.99252,0 -1.40488,-0.13634 -1.85208,-0.61237 z m 32.762237,-4.94388 v -5.55625 h 1.27679 c 0.99252,0 1.40488,0.13634 1.85209,0.61236 0.5427,0.57769 0.57528,0.85977 0.57528,4.98097 0,4.22434 -0.0202,4.38759 -0.61236,4.94388 -0.44886,0.42168 -0.94339,0.57529 -1.85209,0.57529 h -1.23971 z"
         style="fill:#000000;stroke-width:0.26458335" />
    </g>
    <g
       id="g4405"
       transform="matrix(0.19530154,0,0,0.19591681,106.43936,217.90635)"
       inkscape:export-xdpi="130.048"
       inkscape:export-ydpi="130.048">
      <rect
         y="-106.71036"
         x="-545"
         height="510.42072"
         width="1300"
         id="rect4679"
         style="opacity:1;fill:none;stroke:none;stroke-width:5.94381142;stroke-miterlimit:4;stroke-dasharray:none;stroke-opacity:1" />
      <g
         transform="matrix(5.4025224,0,0,5.4025224,-550.65698,-1173.2769)"
         id="g4369">
        <g
           id="g4357">
          <circle
             r="43.043671"
             cy="244.60806"
             cx="50.160366"
             id="path4622"
             style="fill:url(#linearGradient4646);fill-opacity:1;stroke:none;stroke-width:0.38683802;stroke-miterlimit:4;stroke-dasharray:none;stroke-opacity:1" />
          <path
             sodipodi:nodetypes="sssccssssccss"
             inkscape:connector-curvature="0"
             id="circle4038-7"
             transform="scale(0.26458333)"
             d="m 189.72266,759.74414 c -91.076757,0 -164.949223,73.87247 -164.949222,164.94922 0,91.07674 73.872465,164.95504 164.949222,164.95504 49.25397,0 91.32282,-19.1524 121.55265,-53.4009 0.99824,-1.729 -2.40025,-3.0639 -4.76969,-0.6945 -29.40999,31.8912 -69.96406,50.1013 -116.78296,50.1013 -88.92159,0 -160.962894,-72.0394 -160.962894,-160.96094 0,-88.92159 72.041304,-160.96289 160.962894,-160.96289 88.92158,0 160.96875,72.0413 160.96875,160.96289 0,8.47007 -0.53198,15.6479 -1.7917,23.76397 0,2.52853 3.53328,1.86573 4.0332,0 1.23083,-8.12213 1.74482,-15.29923 1.74482,-23.76397 0,-91.07675 -73.87832,-164.94922 -164.95507,-164.94922 z"
             style="color:#000000;font-style:normal;font-variant:normal;font-weight:normal;font-stretch:normal;font-size:medium;line-height:normal;font-family:sans-serif;font-variant-ligatures:normal;font-variant-position:normal;font-variant-caps:normal;font-variant-numeric:normal;font-variant-alternates:normal;font-feature-settings:normal;text-indent:0;text-align:start;text-decoration:none;text-decoration-line:none;text-decoration-style:solid;text-decoration-color:#000000;letter-spacing:normal;word-spacing:normal;text-transform:none;writing-mode:lr-tb;direction:ltr;text-orientation:mixed;dominant-baseline:auto;baseline-shift:baseline;text-anchor:start;white-space:normal;shape-padding:0;clip-rule:nonzero;display:inline;overflow:visible;visibility:visible;opacity:1;isolation:auto;mix-blend-mode:normal;color-interpolation:sRGB;color-interpolation-filters:linearRGB;solid-color:#000000;solid-opacity:1;vector-effect:none;fill:#000000;fill-opacity:1;fill-rule:nonzero;stroke:none;stroke-width:3.98778749;stroke-linecap:butt;stroke-linejoin:miter;stroke-miterlimit:4;stroke-dasharray:none;stroke-dashoffset:0;stroke-opacity:1;color-rendering:auto;image-rendering:auto;shape-rendering:auto;text-rendering:auto;enable-background:accumulate" />
        </g>
        <g
           id="g4361">
          <path
             sodipodi:nodetypes="cccccccscsccccscccccccscccssscccccccsccccccsccccccccccsccsccsccccscccsccsccccsccscscccccsscssssccccccsscsccccsscccccscscccccccccccccccccccscccccccccccccscccsccccsccccccscccccccccscsccsccscccccsccccccccccccsscsccccsccccsccccccssccscccccccccccscccscccsscscccccccscsscccccsccccccccccscccccccccccsccscscccccccscccsccsccssccccsccccsscccccccccccscccccsccsscccccccccccccccccsccscccccscccscccccccccccccscccscccccccscccscccssscccccccccccccccccccscsccscccccccccccccsccccscccccccccccccccccscsccscccccccccccccccsccccscccccccccccccccccccccssccccccscsscssccccccsccccccccccccccsccccccccccccc"
             inkscape:connector-curvature="0"
             id="path4285"
             d="m 88.910659,252.85023 -0.489376,0.8599 c -0.67319,1.18293 -1.800548,1.19433 -2.242757,0.0227 l -0.317293,-0.84026 -5.976379,-0.002 -5.976898,-0.002 -0.49816,0.84283 c -0.367104,0.62146 -0.710417,0.84336 -1.306896,0.84336 -0.640387,0 -0.777023,-0.10363 -0.654741,-0.49659 0.3257,-1.04672 -0.175638,-1.23127 -3.107304,-1.14569 -2.726854,0.0796 -2.806321,0.10078 -2.967259,0.79116 -0.137721,0.59082 -0.355304,0.72345 -1.301213,0.79375 -0.963152,0.0716 -1.25299,-0.047 -1.906344,-0.78031 l -0.770496,-0.86505 h -3.484541 c -3.450688,0 -3.494032,0.008 -4.466913,0.83973 -0.692375,0.59182 -1.29114,0.84262 -2.027783,0.85164 -0.932727,0.0103 -1.055198,-0.0726 -1.135329,-0.76896 l -0.0894,-0.78031 -2.645318,-0.0816 -2.645317,-0.0806 -0.325043,0.86248 c -0.252421,0.66874 -0.498658,0.86196 -1.096058,0.86196 -0.629309,0 -0.786535,-0.14274 -0.859896,-0.7803 -0.08802,-0.76502 -0.131201,-0.78198 -2.214335,-0.86509 -2.706687,-0.10792 -3.303071,0.0502 -3.52485,0.9338 -0.178422,0.71088 -0.183256,0.71159 -3.608565,0.71159 -2.932414,0 -3.40662,-0.0614 -3.266984,-0.42529 0.400876,-1.04468 -0.07725,-1.27693 -2.629813,-1.27693 -1.793228,0 -2.619938,0.1148 -2.953309,0.51882 l 0.0021,-0.0186 c -0.131912,0.13208 -0.176401,0.30107 -0.188102,0.50954 -0.0046,0.0461 -0.0064,0.0951 -0.0072,0.1452 -0.0012,0.0574 -0.007,0.11404 -0.01757,0.16846 -0.0045,0.0198 -0.0092,0.0396 -0.0155,0.0584 -0.0011,0.004 -0.0029,0.008 -0.0041,0.0124 -0.06561,0.18077 -0.215481,0.308 -0.389641,0.308 -0.121677,0 -0.230185,0.0181 -0.307991,0.046 H 21.59911 l -1.966805,16.12511 h 2.017448 0.02584 0.05116 c 0.0095,6.6e-4 0.01732,0.004 0.02739,0.004 0.222043,0 0.380766,0.27481 0.367936,0.63822 l -0.02274,0.63873 5.607926,0.077 5.60741,0.077 0.326078,-0.71572 c 0.463915,-1.01817 1.72522,-0.96052 2.973978,0.13592 l 0.969449,0.85058 h 3.811138 3.811137 l 0.96945,-0.85111 c 0.845037,-0.74195 1.186547,-0.85112 2.658753,-0.85112 1.519107,0 1.765765,0.0855 2.447911,0.85112 l 0.758095,0.85111 h 3.485057 c 3.450686,0 3.49403,-0.008 4.46691,-0.83974 1.275684,-1.09038 3.020976,-1.21418 3.161565,-0.22427 0.08746,0.61587 0.196784,0.63871 3.070614,0.63871 2.87383,0 2.98264,-0.0229 3.070098,-0.63871 0.13472,-0.94853 1.547206,-0.89132 1.990058,0.0806 0.324683,0.71258 0.355243,0.71853 3.380155,0.63874 2.959873,-0.0781 3.051122,-0.10018 3.029273,-0.71933 -0.02153,-0.60997 0.07736,-0.63823 2.211752,-0.63823 1.622703,0 2.221429,0.0969 2.18798,0.35452 -0.1364,1.05037 -0.0314,1.08442 3.071646,1.00253 2.919219,-0.0771 3.05463,-0.10784 3.141411,-0.71882 0.0876,-0.61666 0.194038,-0.63823 3.129008,-0.63823 3.020909,0 3.042618,0.005 3.785298,0.85112 l 0.747242,0.85111 h 3.80597 c 3.781619,0 3.812559,-0.005 4.920119,-0.84336 1.33024,-1.0065 2.82593,-1.1802 2.59622,-0.30178 -0.2475,0.94644 0.42732,1.17221 3.24011,1.08521 2.5776,-0.0797 2.6606,-0.10303 3.02359,-0.86196 0.32014,-0.66932 0.54393,-0.78034 1.57252,-0.78034 1.07192,0 1.23312,0.0902 1.52032,0.85112 l 0.32142,0.85111 h 2.68563 c 2.79395,0 3.58947,-0.31438 3.22151,-1.27331 -0.1114,-0.2903 0.01,-0.42892 0.37413,-0.42892 0.3428,0 0.57172,0.23207 0.62942,0.63823 0.086,0.60553 0.23305,0.64294 2.84944,0.71985 2.74461,0.0807 2.75969,0.0772 2.93935,-0.63873 0.25318,-1.00925 1.59614,-1.016 2.05413,-0.0108 0.40707,0.89341 0.7168,0.89341 1.41956,0 0.77422,-0.98428 2.03708,-0.98428 2.03708,0 0,0.70741 0.009,0.7095 2.70164,0.7095 2.60659,0 2.7133,-0.0251 3.02514,-0.7095 0.39122,-0.85866 1.65107,-1.01005 1.65107,-0.19844 0,1.09728 0.4898,1.19166 6.17636,1.19166 5.69249,0 6.59288,-0.156 6.59288,-1.14464 0,-0.45673 0.19578,-0.55759 1.08211,-0.55759 0.83176,0 1.27056,0.19669 1.89756,0.85111 l 0.81545,0.85112 h 3.85971 3.8592 l 0.98237,-0.83974 c 0.55549,-0.47482 1.32146,-0.84513 1.76268,-0.85111 0.64627,-0.01 0.78031,0.11012 0.78031,0.69763 0,0.70741 0.009,0.7095 2.70217,0.7095 2.60659,0 2.71331,-0.0251 3.02513,-0.7095 0.30687,-0.6735 0.44191,-0.70901 2.67064,-0.70901 h 2.34766 l 0.0899,0.78031 0.0894,0.78031 2.65358,0.0817 c 2.78211,0.086 3.44734,-0.1284 3.44734,-1.11001 0,-0.48098 0.24397,-0.53226 2.50579,-0.53226 2.41583,0 2.50485,0.0226 2.48305,0.6382 -0.0224,0.63617 -0.005,0.63852 5.01727,0.71573 l 5.04,0.0775 0.32608,-0.71572 c 0.40469,-0.88821 1.01633,-0.92991 1.13739,-0.0775 0.0871,0.61347 0.20182,0.63821 2.92851,0.63821 2.72669,0 2.84088,-0.0247 2.92798,-0.63821 0.0898,-0.63246 0.13603,-0.63873 4.69998,-0.63873 h 4.60953 l 0.81546,0.85164 0.81545,0.85112 h 3.85971 3.8592 l 0.98237,-0.83974 c 0.24407,-0.20862 0.47952,-0.37452 0.71365,-0.50385 v 0.006 c 0.41903,-0.23138 0.83392,-0.34272 1.28519,-0.3478 l 1.01545,-0.0113 h 1.78748 l 1.96681,-16.12564 h -1.97714 c -0.003,-9.2e-4 -0.008,-0.002 -0.0119,-0.003 -0.0157,-0.004 -0.0352,-0.006 -0.0527,-0.0104 -0.0361,-0.007 -0.0756,-0.014 -0.11937,-0.0191 -0.0192,-0.002 -0.0397,-0.004 -0.0605,-0.006 -0.036,-0.003 -0.0796,-0.005 -0.12041,-0.008 -0.0938,-0.005 -0.19993,-0.008 -0.32091,-0.009 -0.0286,-2.1e-4 -0.0467,-0.002 -0.077,-0.002 -0.87294,0 -1.26855,-0.18103 -1.86655,-0.85214 l -0.75861,-0.85162 h -0.6904 v 0.002 h -3.21995 -3.91036 l -0.98237,0.83973 c -0.77108,0.65908 -1.26252,0.84212 -2.28358,0.85111 -1.09746,0.01 -1.42043,-0.12255 -2.06499,-0.84595 l -0.76378,-0.8573 -5.31285,0.077 -5.31286,0.0775 -0.0899,0.78031 c -0.0622,0.54063 -0.25204,0.78031 -0.61909,0.78031 -0.36706,0 -0.5574,-0.23968 -0.6196,-0.78031 l -0.0899,-0.78031 -4.78627,-0.078 c -4.97867,-0.0811 -5.57124,0.0365 -5.57124,1.10585 0,0.90056 -1.08083,0.67516 -1.18701,-0.24752 l -0.0899,-0.78031 -6.49107,-0.0765 c -6.74382,-0.0793 -7.27139,8.5e-4 -7.27139,1.10432 1e-5,0.49808 -0.28349,0.53279 -4.35116,0.53279 h -4.35167 l -0.75861,-0.85161 -0.75861,-0.85111 h -3.90984 -3.91035 l -0.98237,0.83973 c -1.28889,1.1017 -2.82722,1.20187 -2.82722,0.18396 0,-0.37348 -0.20169,-0.75692 -0.44855,-0.85161 -0.64175,-0.2463 -11.54692,-0.20524 -11.93313,0.045 -0.17703,0.11465 -0.36989,0.46406 -0.42839,0.77618 -0.069,0.36891 -0.37115,0.59815 -0.86352,0.65525 -0.64502,0.0748 -0.77062,-0.0306 -0.84852,-0.70951 l -0.0915,-0.79738 -2.59829,-0.0811 -2.59829,-0.0811 -0.6134,0.86146 c -0.58838,0.8263 -0.6991,0.86196 -2.70681,0.86196 -2.00388,0 -2.10953,-0.0333 -2.46755,-0.78031 -0.36894,-0.76964 -0.4102,-0.78031 -3.05305,-0.78031 -2.6241,0 -2.68248,0.0142 -2.84582,0.70901 -0.16015,0.68127 -0.2647,0.71297 -2.63756,0.79168 -2.2743,0.0755 -2.47117,0.0386 -2.47117,-0.46199 0,-1.01824 -0.64361,-1.20454 -3.8685,-1.11984 -3.04433,0.08 -3.08102,0.0894 -3.45043,0.86145 -0.36963,0.77237 -0.40134,0.78031 -3.14245,0.78031 -2.70631,0 -2.78768,-0.0196 -3.58479,-0.85161 l -0.81546,-0.85111 h -3.90983 -3.909836 l -0.969452,0.85111 c -0.68852,0.60452 -1.26206,0.85161 -1.978689,0.85161 -0.92465,0 -1.004964,-0.0653 -0.956014,-0.78031 l 0.05323,-0.78031 -2.773993,-0.0816 z m 37.891231,0.85424 2.24585,0.0811 2.24638,0.0816 1.11208,2.97916 c 0.61138,1.63872 1.19982,3.07115 1.30793,3.18275 0.10812,0.1116 1.09407,-1.22934 2.19108,-2.97969 l 1.99471,-3.18222 2.18643,-0.0832 c 2.02565,-0.0768 2.18694,-0.0409 2.18694,0.48524 0,0.3124 -0.44666,4.18058 -0.99218,8.59587 -0.54552,4.41528 -0.99185,8.18734 -0.99271,8.38245 -9.2e-4,0.25267 -0.62536,0.35449 -2.17041,0.35449 h -2.16834 l 0.18965,-1.77353 c 0.10435,-0.97544 0.2652,-2.53934 0.3576,-3.47575 l 0.16795,-1.70276 -2.04484,3.26337 c -1.12463,1.7948 -2.08178,3.30044 -2.12648,3.34606 -0.0448,0.0455 -0.62792,-1.39219 -1.29605,-3.19516 -0.66814,-1.80298 -1.26977,-3.2235 -1.33687,-3.1564 -0.11243,0.11242 -0.89469,5.53167 -0.91519,6.33968 -0.006,0.25193 -0.63604,0.35499 -2.17454,0.35499 h -2.16576 l 0.16226,-1.2061 c 0.0892,-0.66332 0.58322,-4.69019 1.09813,-8.94882 z m -85.92706,0.002 c 1.268281,0.0305 1.021517,0.68736 0.236681,6.82956 -0.950624,7.43961 -1.028338,6.81043 0.838189,6.81043 1.820852,0 1.567566,0.69627 2.427761,-6.66885 0.309875,-2.65319 0.638535,-5.30273 0.730703,-5.88801 l 0.167949,-1.06402 h 2.103231 c 1.156806,0 2.104864,0.0959 2.107364,0.21291 0.0024,0.11705 -0.392774,3.59648 -0.878499,7.73234 l -0.88315,7.51996 -1.276924,1.20613 -1.276924,1.2056 H 41.397279 37.62335 l -0.881084,-1.00304 c -0.484378,-0.55168 -0.882299,-1.28569 -0.884699,-1.63142 -0.0023,-0.3457 0.403232,-3.91662 0.901236,-7.93543 l 0.905372,-7.30705 h 2.078427 c 0.466029,0 0.839549,-0.0261 1.132228,-0.0191 z m 157.28859,0.0145 c 0.46666,8.9e-4 1.00594,0.005 1.63039,0.005 h 4.41885 l -0.1788,1.48985 c -0.0984,0.81936 -0.18038,1.77686 -0.18138,2.12801 -0.002,0.56719 -0.14519,0.63873 -1.27951,0.63873 -0.85427,0 -1.27692,0.12121 -1.27692,0.3664 0,0.44035 -0.79345,6.82752 -0.98547,7.93335 -0.13033,0.75057 -0.089,0.78083 1.07487,0.78083 h 1.21026 l -0.26459,2.26963 -0.26458,2.27015 h -4.52479 -4.52478 l 0.16691,-1.13483 c 0.0917,-0.62425 0.24203,-1.64586 0.33383,-2.27012 0.16164,-1.09977 0.20085,-1.13483 1.26401,-1.13483 1.01644,0 1.10878,-0.0681 1.2547,-0.92241 0.128,-0.74955 1.00304,-7.79783 1.00304,-8.07911 0,-0.0437 -0.51998,-0.0791 -1.15549,-0.0791 h -1.15548 l 0.18552,-1.63195 c 0.28479,-2.50439 -0.0172,-2.63559 3.24941,-2.6293 z m -170.950803,0.005 c 1.167551,0 2.122868,0.0427 2.122868,0.0946 0,0.29151 -1.43112,11.81052 -1.548226,12.46177 l -0.14056,0.78083 h 2.830835 2.830318 l -0.0026,0.78031 c -0.0014,0.42918 -0.08297,1.45079 -0.181384,2.27015 l -0.178801,1.48932 H 27.84512 22.74569 l 0.160714,-0.92192 c 0.08851,-0.50723 0.555058,-4.24243 1.036629,-8.30027 0.481571,-4.05781 0.936767,-7.66487 1.011308,-8.01602 0.125904,-0.59307 0.286146,-0.63874 2.25826,-0.63874 z m 38.82812,0 h 2.384867 2.384351 l -0.152964,0.78031 c -0.08414,0.42921 -0.229949,1.54665 -0.324008,2.48307 -0.09405,0.93641 -0.240573,2.06946 -0.325562,2.51819 -0.243806,1.28704 0.238051,0.73126 2.300118,-2.65205 l 1.907892,-3.12952 h 2.419493 c 1.829038,0 2.386226,0.0874 2.282547,0.35762 -0.07544,0.19658 -1.302009,2.13235 -2.725933,4.30204 -1.423927,2.16972 -2.588988,4.09885 -2.588988,4.28657 0,0.18769 0.765799,2.20623 1.702221,4.48604 0.936418,2.27978 1.702739,4.21769 1.702739,4.30619 0,0.0888 -1.111422,0.12349 -2.470134,0.0785 l -2.47065,-0.0816 -1.074354,-2.83755 c -0.590825,-1.5607 -1.142206,-3.01543 -1.225248,-3.23286 -0.254366,-0.66596 -0.400794,-0.22585 -0.70435,2.11717 -0.16038,1.23793 -0.359696,2.6657 -0.442865,3.17293 l -0.150897,0.92192 h -2.257227 c -1.241488,0 -2.261425,-0.0953 -2.266527,-0.21238 -0.0051,-0.11706 0.464458,-4.13983 1.043348,-8.939 z m 17.165878,0 h 2.22622 l 0.618567,2.12805 c 0.340109,1.17051 0.6756,2.12854 0.745691,2.12854 0.0701,0 0.653108,-0.95803 1.295527,-2.12854 l 1.167887,-2.12805 h 2.244825 c 1.234451,0 2.244307,0.0575 2.244307,0.12764 0,0.0702 -1.197903,2.40041 -2.661851,5.1785 l -2.661854,5.05138 -0.342098,3.12126 c -0.18837,1.71675 -0.409049,3.40881 -0.490411,3.75997 -0.139117,0.60036 -0.291729,0.6382 -2.56005,0.6382 -2.357458,0 -2.408742,-0.0142 -2.259293,-0.6382 0.0841,-0.35116 0.309544,-2.10678 0.500746,-3.90158 l 0.347781,-3.26337 -1.321366,-4.75371 c -0.72658,-2.61454 -1.32085,-4.88117 -1.32085,-5.0369 0,-0.16429 0.934482,-0.28319 2.226222,-0.28319 z m 15.061094,0 h 3.784271 3.78426 l 1.01596,1.06403 1.01647,1.06452 -0.28267,2.19885 -0.28215,2.19935 h -2.09496 -2.09496 v -1.13533 -1.13483 h -1.56063 c -0.85838,0 -1.560968,0.0318 -1.561148,0.0708 -1.69e-4,0.039 -0.255627,2.05041 -0.567407,4.46947 -0.31179,2.41909 -0.566719,4.50022 -0.566891,4.62505 -1.8e-4,0.12488 0.73351,0.18891 1.630906,0.14211 1.44541,-0.0754 1.64208,-0.15788 1.72238,-0.72348 0.0749,-0.52729 -0.0432,-0.6387 -0.678,-0.6387 -0.76084,0 -0.76672,-0.0153 -0.58962,-1.48985 0.0984,-0.81936 0.18038,-1.77686 0.18138,-2.12801 0.002,-0.62148 0.0823,-0.63873 2.98225,-0.63873 2.1384,0 2.97914,0.0967 2.97914,0.34261 0,0.18843 -0.20274,1.91852 -0.45113,3.84474 l -0.45165,3.5026 -1.1803,1.11363 v -0.002 l -1.17977,1.11416 -3.854542,0.008 -3.854027,0.008 -0.914675,-1.13792 -0.914154,-1.13792 0.829921,-6.71793 0.830443,-6.71793 1.160653,-1.08315 z m 47.248801,0 h 5.63479 5.6348 l -0.18552,1.63143 c -0.32153,2.82736 -0.0274,2.62516 -3.81165,2.62516 h -3.3507 l -0.17725,0.88676 c -0.33969,1.69844 -0.38425,1.66708 2.3766,1.66708 2.89653,0 2.72607,-0.19873 2.36988,2.76678 l -0.1788,1.48981 h -2.62103 -2.62051 l -0.17777,0.88678 c -0.34565,1.72821 -0.46486,1.66708 3.25045,1.66708 h 3.42821 l -0.19947,1.9151 c -0.10967,1.0535 -0.25549,2.01153 -0.32349,2.12858 -0.068,0.11701 -2.62298,0.21238 -5.67769,0.21238 h -5.55367 l 0.16227,-1.2056 c 0.0893,-0.66331 0.58041,-4.68608 1.0914,-8.939 z m 61.30426,5.3e-4 4.97024,0.005 4.97024,0.005 0.87643,1.05884 0.87592,1.05886 -0.38344,3.26337 -0.38396,3.26334 -1.25625,1.20613 -1.25625,1.20613 h -2.7125 c -1.49175,0 -2.71628,0.0953 -2.72128,0.21241 -0.005,0.11703 -0.19229,1.55381 -0.41651,3.19256 -0.22422,1.63872 -0.41151,3.07552 -0.41651,3.19257 -0.005,0.11703 -0.98348,0.21292 -2.17455,0.21292 h -2.16576 l 0.16226,-1.20613 c 0.0891,-0.66331 0.58236,-4.68556 1.09658,-8.93847 z m -145.56217,0.01 0.939477,1.13117 c 0.859676,1.03529 0.924491,1.24571 0.762228,2.47791 -0.414274,3.14584 -0.200004,2.90732 -2.611726,2.90732 h -2.14199 l 0.181385,-1.13533 0.181901,-1.13483 h -1.280541 c -1.025874,0 -1.282393,0.0987 -1.291394,0.4966 -0.0062,0.27313 -0.2456,2.28402 -0.531752,4.469 -0.286155,2.18498 -0.46482,4.06873 -0.397391,4.18579 0.06743,0.11702 0.625679,0.21291 1.240751,0.21291 0.993597,0 1.118277,-0.0766 1.118277,-0.68628 0,-1.45518 0.200776,-1.58387 2.467552,-1.58387 h 2.12235 l -0.166397,1.13479 c -0.09175,0.62431 -0.23858,1.62552 -0.32608,2.2247 -0.122743,0.8404 -0.443177,1.32657 -1.401982,2.12802 l -1.242817,1.03817 -3.351218,-0.005 -3.351215,-0.005 -0.928627,-1.11826 -0.928624,-1.11879 0.850593,-6.7505 0.851112,-6.751 1.212845,-1.05577 1.212847,-1.05574 3.405476,-0.003 z m 107.83011,0 0.90589,1.09088 c 0.84672,1.02004 0.89483,1.19562 0.74052,2.69078 l -0.16485,1.59941 h -2.204 c -2.06444,0 -2.19417,-0.0358 -2.05517,-0.56743 0.13647,-0.52181 0.008,-0.5674 -1.5875,-0.5674 -1.60964,0 -1.73643,0.0461 -1.73943,0.63821 -0.002,0.35115 -0.0811,0.92575 -0.17518,1.27693 -0.16911,0.63047 -0.13805,0.6387 2.6758,0.6387 h 2.84686 l 0.88728,1.11985 0.88729,1.12033 -0.43822,3.34192 -0.43821,3.3419 -1.20561,1.05939 v 0.002 l -1.20562,1.05883 -3.83077,-0.0119 -3.83077,-0.0119 -0.90693,-1.05783 c -0.85255,-0.99422 -0.89757,-1.15509 -0.74104,-2.67165 l 0.16692,-1.61386 h 2.19883 c 1.92,0 2.19396,0.063 2.15956,0.4966 -0.0326,0.41111 0.24137,0.51139 1.59215,0.58187 1.53722,0.0802 1.63256,0.0474 1.63556,-0.5674 0.002,-0.35896 0.0806,-0.94025 0.17467,-1.2914 0.16905,-0.63045 0.13727,-0.6382 -2.65204,-0.6382 h -2.82308 l -0.894,-1.11258 -0.89401,-1.1126 0.43719,-3.3569 0.43718,-3.3569 1.18959,-1.05161 1.18959,-1.05214 3.83078,-0.008 z m 61.57712,0 0.90537,1.09088 c 0.74089,0.89254 0.87063,1.13882 0.78807,2.18797 -0.0118,0.14989 -0.0277,0.31591 -0.047,0.50281 l -0.108,1.04439 -0.0574,0.55346 h -2.03398 v 0.002 h -0.17001 c -2.06443,0 -2.19418,-0.0358 -2.05518,-0.5674 0.13647,-0.52183 0.008,-0.56742 -1.5875,-0.56742 -1.60964,0 -1.73642,0.0461 -1.73942,0.63823 -0.002,0.35112 -0.0806,0.92575 -0.17467,1.2769 -0.16912,0.63048 -0.13856,0.63873 2.67529,0.63873 h 2.84737 l 0.20412,0.25786 0.68213,0.86196 0.8878,1.12036 -0.43821,3.34189 v 0.002 l -0.43822,3.34037 -1.20561,1.05936 v 0.002 l -1.2051,1.05883 -3.83077,-0.0119 -3.83077,-0.0119 -0.90744,-1.05783 c -0.85257,-0.99422 -0.89705,-1.15509 -0.74053,-2.67165 l 0.1664,-1.61385 h 2.19884 c 1.92001,0 2.19395,0.063 2.15955,0.49659 -0.0326,0.41111 0.24138,0.51139 1.59215,0.58187 1.53722,0.0802 1.63256,0.0474 1.63556,-0.5674 0.002,-0.35896 0.0811,-0.94025 0.17518,-1.29137 0.16904,-0.63048 0.13678,-0.63823 -2.65255,-0.63823 h -2.82308 l -0.894,-1.11257 -0.894,-1.1126 0.43718,-3.35691 0.43718,-3.3569 1.18959,-1.05161 1.18959,-1.05214 3.83129,-0.008 z m -48.64664,0.0241 c 1.13861,0 2.69977,0.0105 4.40851,0.0315 l 6.21358,0.0765 -0.23978,2.05722 -0.23978,2.05724 h -1.92133 -1.92081 l -0.80977,6.81045 -0.80926,6.80993 h -2.48512 -2.4846 l 0.13901,-0.78034 c 0.12734,-0.71427 1.54926,-12.368 1.54926,-12.69741 0,-0.0787 -0.84297,-0.14263 -1.87327,-0.14263 h -1.87327 l 0.20257,-2.05724 c 0.11137,-1.13149 0.23328,-2.09172 0.27079,-2.13371 0.0188,-0.021 0.73467,-0.0315 1.87327,-0.0315 z m -62.73261,0.002 c 0.52645,0.005 0.85318,0.023 0.85318,0.0527 0,0.0594 0.44698,4.01481 0.99322,8.79014 0.54625,4.77536 0.99322,8.75329 0.99322,8.84031 0,0.087 -1.08565,0.15812 -2.41226,0.15812 h -2.41173 v -0.82786 c 0,-1.54775 -0.2057,-1.72598 -1.99316,-1.72598 h -1.64848 l -0.40153,1.20613 -0.40101,1.20613 -2.44067,0.0816 -2.44068,0.0817 0.84698,-2.35178 c 0.4656,-1.29352 1.89493,-5.28892 3.17655,-8.87854 l 2.33009,-6.52622 2.90473,-0.0811 c 0.79875,-0.0222 1.5251,-0.0302 2.05155,-0.0253 z m 92.98192,4.22093 c -1.54298,0 -1.54578,0.001 -1.73271,0.99787 -0.1027,0.54891 -0.10538,1.1298 -0.006,1.29088 0.10019,0.16092 0.8399,0.25482 1.64486,0.20825 l 1.46451,-0.0853 0.0873,-1.2056 0.0873,-1.20613 z m -96.01584,4.35271 c -0.11325,-0.0319 -0.26076,0.36171 -0.63769,1.39319 -0.26234,0.71795 -0.22917,0.78031 0.41703,0.78031 0.74677,0 0.83824,-0.36216 0.42943,-1.70222 -0.0853,-0.27962 -0.14082,-0.45218 -0.20877,-0.47128 z m 55.32685,4.72787 h 2.08876 2.08877 l -0.002,0.7803 c -0.001,0.42919 -0.083,1.45079 -0.18139,2.27016 l -0.1788,1.48931 h -2.08876 -2.08876 l 0.002,-0.78031 c 10e-4,-0.42918 0.0829,-1.45079 0.18138,-2.27015 z"
             style="fill:#000000;stroke-width:0.2837638" />
          <path
             inkscape:connector-curvature="0"
             id="path4220"
             d="m 34.660837,248.50814 c -0.624714,-0.3809 -1.450763,-1.20367 -1.835652,-1.82838 -0.6705,-1.08828 -0.695909,-1.64168 -0.606708,-13.2148 l 0.09313,-12.07893 1.070313,-1.33878 c 1.812482,-2.2671 2.768817,-2.55742 8.426634,-2.55802 l 4.966294,-5.5e-4 v -2.9016 c 0,-2.5824 0.08878,-2.98497 0.806621,-3.65938 1.046445,-0.98309 2.363564,-0.96367 3.314775,0.0489 0.650623,0.69255 0.757778,1.21004 0.757778,3.65938 v 2.85276 l 4.966294,5.6e-4 c 5.657807,6.3e-4 6.614141,0.29092 8.426637,2.55802 l 1.070326,1.33878 0.09313,12.07894 c 0.08918,11.57312 0.06375,12.12651 -0.606707,13.21479 -0.384903,0.62473 -1.210952,1.4475 -1.835666,1.82839 -1.08147,0.65939 -1.778248,0.69253 -14.553565,0.69253 -12.775327,0 -13.472106,-0.0332 -14.553576,-0.69253 z m 9.674402,-7.8434 v -1.21979 h -2.439581 -2.439593 v 1.21979 1.21979 h 2.439593 2.439581 z m 7.318754,0 v -1.21979 h -2.439581 -2.439593 v 1.21979 1.21979 h 2.439593 2.439581 z m 7.318757,0 v -1.21979 h -2.439583 -2.439594 v 1.21979 1.21979 h 2.439594 2.439583 z m -15.906144,-8.32143 c 2.443282,-1.02086 2.436393,-4.29542 -0.01185,-5.31809 -0.990266,-0.41376 -1.329237,-0.41376 -2.319503,0 -2.400775,1.00311 -2.454728,4.27274 -0.0876,5.30348 1.331463,0.57976 1.069444,0.57818 2.418241,0.0146 z m 14.637511,0 c 2.443282,-1.02086 2.436393,-4.29542 -0.01054,-5.31809 -0.990282,-0.41376 -1.329254,-0.41376 -2.31952,0 -2.400762,1.00311 -2.454728,4.27274 -0.08746,5.30348 1.33145,0.57976 1.069443,0.57818 2.41823,0.0146 z m -32.127782,8.7346 c -0.714864,-0.76093 -0.757779,-1.13248 -0.757779,-6.56097 0,-5.56435 0.02661,-5.77939 0.806621,-6.51214 0.591243,-0.55544 1.242631,-0.75778 2.43958,-0.75778 h 1.632973 v 7.31876 7.31875 h -1.681815 c -1.307358,0 -1.850523,-0.17959 -2.43958,-0.80662 z m 43.154771,-6.51213 v -7.31876 h 1.681802 c 1.307359,0 1.850524,0.17959 2.439594,0.80661 0.71485,0.76094 0.757765,1.1325 0.757765,6.56099 0,5.56435 -0.02661,5.77938 -0.806607,6.51213 -0.591244,0.55544 -1.242644,0.75778 -2.439594,0.75778 h -1.63296 z"
             style="fill:#000000;stroke-width:0.34851211" />
        </g>
      </g>
    </g>
    <g
       inkscape:export-ydpi="130.048"
       inkscape:export-xdpi="130.048"
       transform="matrix(0.14647616,0,0,0.14693761,-222.67049,52.947356)"
       id="g4423">
      <rect
         style="opacity:1;fill:none;stroke:none;stroke-width:5.94381142;stroke-miterlimit:4;stroke-dasharray:none;stroke-opacity:1"
         id="rect4407"
         width="1300"
         height="510.42072"
         x="-545"
         y="-106.71036" />
      <g
         id="g4421"
         transform="matrix(5.4025224,0,0,5.4025224,-550.65698,-1173.2769)">
        <g
           id="g4413">
          <circle
             style="fill:url(#linearGradient4425);fill-opacity:1;stroke:none;stroke-width:0.38683802;stroke-miterlimit:4;stroke-dasharray:none;stroke-opacity:1"
             id="circle4409"
             cx="50.160366"
             cy="244.60806"
             r="43.043671" />
          <path
             style="color:#000000;font-style:normal;font-variant:normal;font-weight:normal;font-stretch:normal;font-size:medium;line-height:normal;font-family:sans-serif;font-variant-ligatures:normal;font-variant-position:normal;font-variant-caps:normal;font-variant-numeric:normal;font-variant-alternates:normal;font-feature-settings:normal;text-indent:0;text-align:start;text-decoration:none;text-decoration-line:none;text-decoration-style:solid;text-decoration-color:#000000;letter-spacing:normal;word-spacing:normal;text-transform:none;writing-mode:lr-tb;direction:ltr;text-orientation:mixed;dominant-baseline:auto;baseline-shift:baseline;text-anchor:start;white-space:normal;shape-padding:0;clip-rule:nonzero;display:inline;overflow:visible;visibility:visible;opacity:1;isolation:auto;mix-blend-mode:normal;color-interpolation:sRGB;color-interpolation-filters:linearRGB;solid-color:#000000;solid-opacity:1;vector-effect:none;fill:#000000;fill-opacity:1;fill-rule:nonzero;stroke:none;stroke-width:3.98778749;stroke-linecap:butt;stroke-linejoin:miter;stroke-miterlimit:4;stroke-dasharray:none;stroke-dashoffset:0;stroke-opacity:1;color-rendering:auto;image-rendering:auto;shape-rendering:auto;text-rendering:auto;enable-background:accumulate"
             d="m 189.72266,759.74414 c -91.076757,0 -164.949223,73.87247 -164.949222,164.94922 0,91.07674 73.872465,164.95504 164.949222,164.95504 49.25397,0 91.32282,-19.1524 121.55265,-53.4009 0.99824,-1.729 -2.40025,-3.0639 -4.76969,-0.6945 -29.40999,31.8912 -69.96406,50.1013 -116.78296,50.1013 -88.92159,0 -160.962894,-72.0394 -160.962894,-160.96094 0,-88.92159 72.041304,-160.96289 160.962894,-160.96289 88.92158,0 160.96875,72.0413 160.96875,160.96289 0,8.47007 -0.53198,15.6479 -1.7917,23.76397 0,2.52853 3.53328,1.86573 4.0332,0 1.23083,-8.12213 1.74482,-15.29923 1.74482,-23.76397 0,-91.07675 -73.87832,-164.94922 -164.95507,-164.94922 z"
             transform="scale(0.26458333)"
             id="path4411"
             inkscape:connector-curvature="0"
             sodipodi:nodetypes="sssccssssccss" />
        </g>
        <g
           id="g4419">
          <path
             style="fill:#000000;stroke-width:0.2837638"
             d="m 88.910659,252.85023 -0.489376,0.8599 c -0.67319,1.18293 -1.800548,1.19433 -2.242757,0.0227 l -0.317293,-0.84026 -5.976379,-0.002 -5.976898,-0.002 -0.49816,0.84283 c -0.367104,0.62146 -0.710417,0.84336 -1.306896,0.84336 -0.640387,0 -0.777023,-0.10363 -0.654741,-0.49659 0.3257,-1.04672 -0.175638,-1.23127 -3.107304,-1.14569 -2.726854,0.0796 -2.806321,0.10078 -2.967259,0.79116 -0.137721,0.59082 -0.355304,0.72345 -1.301213,0.79375 -0.963152,0.0716 -1.25299,-0.047 -1.906344,-0.78031 l -0.770496,-0.86505 h -3.484541 c -3.450688,0 -3.494032,0.008 -4.466913,0.83973 -0.692375,0.59182 -1.29114,0.84262 -2.027783,0.85164 -0.932727,0.0103 -1.055198,-0.0726 -1.135329,-0.76896 l -0.0894,-0.78031 -2.645318,-0.0816 -2.645317,-0.0806 -0.325043,0.86248 c -0.252421,0.66874 -0.498658,0.86196 -1.096058,0.86196 -0.629309,0 -0.786535,-0.14274 -0.859896,-0.7803 -0.08802,-0.76502 -0.131201,-0.78198 -2.214335,-0.86509 -2.706687,-0.10792 -3.303071,0.0502 -3.52485,0.9338 -0.178422,0.71088 -0.183256,0.71159 -3.608565,0.71159 -2.932414,0 -3.40662,-0.0614 -3.266984,-0.42529 0.400876,-1.04468 -0.07725,-1.27693 -2.629813,-1.27693 -1.793228,0 -2.619938,0.1148 -2.953309,0.51882 l 0.0021,-0.0186 c -0.131912,0.13208 -0.176401,0.30107 -0.188102,0.50954 -0.0046,0.0461 -0.0064,0.0951 -0.0072,0.1452 -0.0012,0.0574 -0.007,0.11404 -0.01757,0.16846 -0.0045,0.0198 -0.0092,0.0396 -0.0155,0.0584 -0.0011,0.004 -0.0029,0.008 -0.0041,0.0124 -0.06561,0.18077 -0.215481,0.308 -0.389641,0.308 -0.121677,0 -0.230185,0.0181 -0.307991,0.046 H 21.59911 l -1.966805,16.12511 h 2.017448 0.02584 0.05116 c 0.0095,6.6e-4 0.01732,0.004 0.02739,0.004 0.222043,0 0.380766,0.27481 0.367936,0.63822 l -0.02274,0.63873 5.607926,0.077 5.60741,0.077 0.326078,-0.71572 c 0.463915,-1.01817 1.72522,-0.96052 2.973978,0.13592 l 0.969449,0.85058 h 3.811138 3.811137 l 0.96945,-0.85111 c 0.845037,-0.74195 1.186547,-0.85112 2.658753,-0.85112 1.519107,0 1.765765,0.0855 2.447911,0.85112 l 0.758095,0.85111 h 3.485057 c 3.450686,0 3.49403,-0.008 4.46691,-0.83974 1.275684,-1.09038 3.020976,-1.21418 3.161565,-0.22427 0.08746,0.61587 0.196784,0.63871 3.070614,0.63871 2.87383,0 2.98264,-0.0229 3.070098,-0.63871 0.13472,-0.94853 1.547206,-0.89132 1.990058,0.0806 0.324683,0.71258 0.355243,0.71853 3.380155,0.63874 2.959873,-0.0781 3.051122,-0.10018 3.029273,-0.71933 -0.02153,-0.60997 0.07736,-0.63823 2.211752,-0.63823 1.622703,0 2.221429,0.0969 2.18798,0.35452 -0.1364,1.05037 -0.0314,1.08442 3.071646,1.00253 2.919219,-0.0771 3.05463,-0.10784 3.141411,-0.71882 0.0876,-0.61666 0.194038,-0.63823 3.129008,-0.63823 3.020909,0 3.042618,0.005 3.785298,0.85112 l 0.747242,0.85111 h 3.80597 c 3.781619,0 3.812559,-0.005 4.920119,-0.84336 1.33024,-1.0065 2.82593,-1.1802 2.59622,-0.30178 -0.2475,0.94644 0.42732,1.17221 3.24011,1.08521 2.5776,-0.0797 2.6606,-0.10303 3.02359,-0.86196 0.32014,-0.66932 0.54393,-0.78034 1.57252,-0.78034 1.07192,0 1.23312,0.0902 1.52032,0.85112 l 0.32142,0.85111 h 2.68563 c 2.79395,0 3.58947,-0.31438 3.22151,-1.27331 -0.1114,-0.2903 0.01,-0.42892 0.37413,-0.42892 0.3428,0 0.57172,0.23207 0.62942,0.63823 0.086,0.60553 0.23305,0.64294 2.84944,0.71985 2.74461,0.0807 2.75969,0.0772 2.93935,-0.63873 0.25318,-1.00925 1.59614,-1.016 2.05413,-0.0108 0.40707,0.89341 0.7168,0.89341 1.41956,0 0.77422,-0.98428 2.03708,-0.98428 2.03708,0 0,0.70741 0.009,0.7095 2.70164,0.7095 2.60659,0 2.7133,-0.0251 3.02514,-0.7095 0.39122,-0.85866 1.65107,-1.01005 1.65107,-0.19844 0,1.09728 0.4898,1.19166 6.17636,1.19166 5.69249,0 6.59288,-0.156 6.59288,-1.14464 0,-0.45673 0.19578,-0.55759 1.08211,-0.55759 0.83176,0 1.27056,0.19669 1.89756,0.85111 l 0.81545,0.85112 h 3.85971 3.8592 l 0.98237,-0.83974 c 0.55549,-0.47482 1.32146,-0.84513 1.76268,-0.85111 0.64627,-0.01 0.78031,0.11012 0.78031,0.69763 0,0.70741 0.009,0.7095 2.70217,0.7095 2.60659,0 2.71331,-0.0251 3.02513,-0.7095 0.30687,-0.6735 0.44191,-0.70901 2.67064,-0.70901 h 2.34766 l 0.0899,0.78031 0.0894,0.78031 2.65358,0.0817 c 2.78211,0.086 3.44734,-0.1284 3.44734,-1.11001 0,-0.48098 0.24397,-0.53226 2.50579,-0.53226 2.41583,0 2.50485,0.0226 2.48305,0.6382 -0.0224,0.63617 -0.005,0.63852 5.01727,0.71573 l 5.04,0.0775 0.32608,-0.71572 c 0.40469,-0.88821 1.01633,-0.92991 1.13739,-0.0775 0.0871,0.61347 0.20182,0.63821 2.92851,0.63821 2.72669,0 2.84088,-0.0247 2.92798,-0.63821 0.0898,-0.63246 0.13603,-0.63873 4.69998,-0.63873 h 4.60953 l 0.81546,0.85164 0.81545,0.85112 h 3.85971 3.8592 l 0.98237,-0.83974 c 0.24407,-0.20862 0.47952,-0.37452 0.71365,-0.50385 v 0.006 c 0.41903,-0.23138 0.83392,-0.34272 1.28519,-0.3478 l 1.01545,-0.0113 h 1.78748 l 1.96681,-16.12564 h -1.97714 c -0.003,-9.2e-4 -0.008,-0.002 -0.0119,-0.003 -0.0157,-0.004 -0.0352,-0.006 -0.0527,-0.0104 -0.0361,-0.007 -0.0756,-0.014 -0.11937,-0.0191 -0.0192,-0.002 -0.0397,-0.004 -0.0605,-0.006 -0.036,-0.003 -0.0796,-0.005 -0.12041,-0.008 -0.0938,-0.005 -0.19993,-0.008 -0.32091,-0.009 -0.0286,-2.1e-4 -0.0467,-0.002 -0.077,-0.002 -0.87294,0 -1.26855,-0.18103 -1.86655,-0.85214 l -0.75861,-0.85162 h -0.6904 v 0.002 h -3.21995 -3.91036 l -0.98237,0.83973 c -0.77108,0.65908 -1.26252,0.84212 -2.28358,0.85111 -1.09746,0.01 -1.42043,-0.12255 -2.06499,-0.84595 l -0.76378,-0.8573 -5.31285,0.077 -5.31286,0.0775 -0.0899,0.78031 c -0.0622,0.54063 -0.25204,0.78031 -0.61909,0.78031 -0.36706,0 -0.5574,-0.23968 -0.6196,-0.78031 l -0.0899,-0.78031 -4.78627,-0.078 c -4.97867,-0.0811 -5.57124,0.0365 -5.57124,1.10585 0,0.90056 -1.08083,0.67516 -1.18701,-0.24752 l -0.0899,-0.78031 -6.49107,-0.0765 c -6.74382,-0.0793 -7.27139,8.5e-4 -7.27139,1.10432 1e-5,0.49808 -0.28349,0.53279 -4.35116,0.53279 h -4.35167 l -0.75861,-0.85161 -0.75861,-0.85111 h -3.90984 -3.91035 l -0.98237,0.83973 c -1.28889,1.1017 -2.82722,1.20187 -2.82722,0.18396 0,-0.37348 -0.20169,-0.75692 -0.44855,-0.85161 -0.64175,-0.2463 -11.54692,-0.20524 -11.93313,0.045 -0.17703,0.11465 -0.36989,0.46406 -0.42839,0.77618 -0.069,0.36891 -0.37115,0.59815 -0.86352,0.65525 -0.64502,0.0748 -0.77062,-0.0306 -0.84852,-0.70951 l -0.0915,-0.79738 -2.59829,-0.0811 -2.59829,-0.0811 -0.6134,0.86146 c -0.58838,0.8263 -0.6991,0.86196 -2.70681,0.86196 -2.00388,0 -2.10953,-0.0333 -2.46755,-0.78031 -0.36894,-0.76964 -0.4102,-0.78031 -3.05305,-0.78031 -2.6241,0 -2.68248,0.0142 -2.84582,0.70901 -0.16015,0.68127 -0.2647,0.71297 -2.63756,0.79168 -2.2743,0.0755 -2.47117,0.0386 -2.47117,-0.46199 0,-1.01824 -0.64361,-1.20454 -3.8685,-1.11984 -3.04433,0.08 -3.08102,0.0894 -3.45043,0.86145 -0.36963,0.77237 -0.40134,0.78031 -3.14245,0.78031 -2.70631,0 -2.78768,-0.0196 -3.58479,-0.85161 l -0.81546,-0.85111 h -3.90983 -3.909836 l -0.969452,0.85111 c -0.68852,0.60452 -1.26206,0.85161 -1.978689,0.85161 -0.92465,0 -1.004964,-0.0653 -0.956014,-0.78031 l 0.05323,-0.78031 -2.773993,-0.0816 z m 37.891231,0.85424 2.24585,0.0811 2.24638,0.0816 1.11208,2.97916 c 0.61138,1.63872 1.19982,3.07115 1.30793,3.18275 0.10812,0.1116 1.09407,-1.22934 2.19108,-2.97969 l 1.99471,-3.18222 2.18643,-0.0832 c 2.02565,-0.0768 2.18694,-0.0409 2.18694,0.48524 0,0.3124 -0.44666,4.18058 -0.99218,8.59587 -0.54552,4.41528 -0.99185,8.18734 -0.99271,8.38245 -9.2e-4,0.25267 -0.62536,0.35449 -2.17041,0.35449 h -2.16834 l 0.18965,-1.77353 c 0.10435,-0.97544 0.2652,-2.53934 0.3576,-3.47575 l 0.16795,-1.70276 -2.04484,3.26337 c -1.12463,1.7948 -2.08178,3.30044 -2.12648,3.34606 -0.0448,0.0455 -0.62792,-1.39219 -1.29605,-3.19516 -0.66814,-1.80298 -1.26977,-3.2235 -1.33687,-3.1564 -0.11243,0.11242 -0.89469,5.53167 -0.91519,6.33968 -0.006,0.25193 -0.63604,0.35499 -2.17454,0.35499 h -2.16576 l 0.16226,-1.2061 c 0.0892,-0.66332 0.58322,-4.69019 1.09813,-8.94882 z m -85.92706,0.002 c 1.268281,0.0305 1.021517,0.68736 0.236681,6.82956 -0.950624,7.43961 -1.028338,6.81043 0.838189,6.81043 1.820852,0 1.567566,0.69627 2.427761,-6.66885 0.309875,-2.65319 0.638535,-5.30273 0.730703,-5.88801 l 0.167949,-1.06402 h 2.103231 c 1.156806,0 2.104864,0.0959 2.107364,0.21291 0.0024,0.11705 -0.392774,3.59648 -0.878499,7.73234 l -0.88315,7.51996 -1.276924,1.20613 -1.276924,1.2056 H 41.397279 37.62335 l -0.881084,-1.00304 c -0.484378,-0.55168 -0.882299,-1.28569 -0.884699,-1.63142 -0.0023,-0.3457 0.403232,-3.91662 0.901236,-7.93543 l 0.905372,-7.30705 h 2.078427 c 0.466029,0 0.839549,-0.0261 1.132228,-0.0191 z m 157.28859,0.0145 c 0.46666,8.9e-4 1.00594,0.005 1.63039,0.005 h 4.41885 l -0.1788,1.48985 c -0.0984,0.81936 -0.18038,1.77686 -0.18138,2.12801 -0.002,0.56719 -0.14519,0.63873 -1.27951,0.63873 -0.85427,0 -1.27692,0.12121 -1.27692,0.3664 0,0.44035 -0.79345,6.82752 -0.98547,7.93335 -0.13033,0.75057 -0.089,0.78083 1.07487,0.78083 h 1.21026 l -0.26459,2.26963 -0.26458,2.27015 h -4.52479 -4.52478 l 0.16691,-1.13483 c 0.0917,-0.62425 0.24203,-1.64586 0.33383,-2.27012 0.16164,-1.09977 0.20085,-1.13483 1.26401,-1.13483 1.01644,0 1.10878,-0.0681 1.2547,-0.92241 0.128,-0.74955 1.00304,-7.79783 1.00304,-8.07911 0,-0.0437 -0.51998,-0.0791 -1.15549,-0.0791 h -1.15548 l 0.18552,-1.63195 c 0.28479,-2.50439 -0.0172,-2.63559 3.24941,-2.6293 z m -170.950803,0.005 c 1.167551,0 2.122868,0.0427 2.122868,0.0946 0,0.29151 -1.43112,11.81052 -1.548226,12.46177 l -0.14056,0.78083 h 2.830835 2.830318 l -0.0026,0.78031 c -0.0014,0.42918 -0.08297,1.45079 -0.181384,2.27015 l -0.178801,1.48932 H 27.84512 22.74569 l 0.160714,-0.92192 c 0.08851,-0.50723 0.555058,-4.24243 1.036629,-8.30027 0.481571,-4.05781 0.936767,-7.66487 1.011308,-8.01602 0.125904,-0.59307 0.286146,-0.63874 2.25826,-0.63874 z m 38.82812,0 h 2.384867 2.384351 l -0.152964,0.78031 c -0.08414,0.42921 -0.229949,1.54665 -0.324008,2.48307 -0.09405,0.93641 -0.240573,2.06946 -0.325562,2.51819 -0.243806,1.28704 0.238051,0.73126 2.300118,-2.65205 l 1.907892,-3.12952 h 2.419493 c 1.829038,0 2.386226,0.0874 2.282547,0.35762 -0.07544,0.19658 -1.302009,2.13235 -2.725933,4.30204 -1.423927,2.16972 -2.588988,4.09885 -2.588988,4.28657 0,0.18769 0.765799,2.20623 1.702221,4.48604 0.936418,2.27978 1.702739,4.21769 1.702739,4.30619 0,0.0888 -1.111422,0.12349 -2.470134,0.0785 l -2.47065,-0.0816 -1.074354,-2.83755 c -0.590825,-1.5607 -1.142206,-3.01543 -1.225248,-3.23286 -0.254366,-0.66596 -0.400794,-0.22585 -0.70435,2.11717 -0.16038,1.23793 -0.359696,2.6657 -0.442865,3.17293 l -0.150897,0.92192 h -2.257227 c -1.241488,0 -2.261425,-0.0953 -2.266527,-0.21238 -0.0051,-0.11706 0.464458,-4.13983 1.043348,-8.939 z m 17.165878,0 h 2.22622 l 0.618567,2.12805 c 0.340109,1.17051 0.6756,2.12854 0.745691,2.12854 0.0701,0 0.653108,-0.95803 1.295527,-2.12854 l 1.167887,-2.12805 h 2.244825 c 1.234451,0 2.244307,0.0575 2.244307,0.12764 0,0.0702 -1.197903,2.40041 -2.661851,5.1785 l -2.661854,5.05138 -0.342098,3.12126 c -0.18837,1.71675 -0.409049,3.40881 -0.490411,3.75997 -0.139117,0.60036 -0.291729,0.6382 -2.56005,0.6382 -2.357458,0 -2.408742,-0.0142 -2.259293,-0.6382 0.0841,-0.35116 0.309544,-2.10678 0.500746,-3.90158 l 0.347781,-3.26337 -1.321366,-4.75371 c -0.72658,-2.61454 -1.32085,-4.88117 -1.32085,-5.0369 0,-0.16429 0.934482,-0.28319 2.226222,-0.28319 z m 15.061094,0 h 3.784271 3.78426 l 1.01596,1.06403 1.01647,1.06452 -0.28267,2.19885 -0.28215,2.19935 h -2.09496 -2.09496 v -1.13533 -1.13483 h -1.56063 c -0.85838,0 -1.560968,0.0318 -1.561148,0.0708 -1.69e-4,0.039 -0.255627,2.05041 -0.567407,4.46947 -0.31179,2.41909 -0.566719,4.50022 -0.566891,4.62505 -1.8e-4,0.12488 0.73351,0.18891 1.630906,0.14211 1.44541,-0.0754 1.64208,-0.15788 1.72238,-0.72348 0.0749,-0.52729 -0.0432,-0.6387 -0.678,-0.6387 -0.76084,0 -0.76672,-0.0153 -0.58962,-1.48985 0.0984,-0.81936 0.18038,-1.77686 0.18138,-2.12801 0.002,-0.62148 0.0823,-0.63873 2.98225,-0.63873 2.1384,0 2.97914,0.0967 2.97914,0.34261 0,0.18843 -0.20274,1.91852 -0.45113,3.84474 l -0.45165,3.5026 -1.1803,1.11363 v -0.002 l -1.17977,1.11416 -3.854542,0.008 -3.854027,0.008 -0.914675,-1.13792 -0.914154,-1.13792 0.829921,-6.71793 0.830443,-6.71793 1.160653,-1.08315 z m 47.248801,0 h 5.63479 5.6348 l -0.18552,1.63143 c -0.32153,2.82736 -0.0274,2.62516 -3.81165,2.62516 h -3.3507 l -0.17725,0.88676 c -0.33969,1.69844 -0.38425,1.66708 2.3766,1.66708 2.89653,0 2.72607,-0.19873 2.36988,2.76678 l -0.1788,1.48981 h -2.62103 -2.62051 l -0.17777,0.88678 c -0.34565,1.72821 -0.46486,1.66708 3.25045,1.66708 h 3.42821 l -0.19947,1.9151 c -0.10967,1.0535 -0.25549,2.01153 -0.32349,2.12858 -0.068,0.11701 -2.62298,0.21238 -5.67769,0.21238 h -5.55367 l 0.16227,-1.2056 c 0.0893,-0.66331 0.58041,-4.68608 1.0914,-8.939 z m 61.30426,5.3e-4 4.97024,0.005 4.97024,0.005 0.87643,1.05884 0.87592,1.05886 -0.38344,3.26337 -0.38396,3.26334 -1.25625,1.20613 -1.25625,1.20613 h -2.7125 c -1.49175,0 -2.71628,0.0953 -2.72128,0.21241 -0.005,0.11703 -0.19229,1.55381 -0.41651,3.19256 -0.22422,1.63872 -0.41151,3.07552 -0.41651,3.19257 -0.005,0.11703 -0.98348,0.21292 -2.17455,0.21292 h -2.16576 l 0.16226,-1.20613 c 0.0891,-0.66331 0.58236,-4.68556 1.09658,-8.93847 z m -145.56217,0.01 0.939477,1.13117 c 0.859676,1.03529 0.924491,1.24571 0.762228,2.47791 -0.414274,3.14584 -0.200004,2.90732 -2.611726,2.90732 h -2.14199 l 0.181385,-1.13533 0.181901,-1.13483 h -1.280541 c -1.025874,0 -1.282393,0.0987 -1.291394,0.4966 -0.0062,0.27313 -0.2456,2.28402 -0.531752,4.469 -0.286155,2.18498 -0.46482,4.06873 -0.397391,4.18579 0.06743,0.11702 0.625679,0.21291 1.240751,0.21291 0.993597,0 1.118277,-0.0766 1.118277,-0.68628 0,-1.45518 0.200776,-1.58387 2.467552,-1.58387 h 2.12235 l -0.166397,1.13479 c -0.09175,0.62431 -0.23858,1.62552 -0.32608,2.2247 -0.122743,0.8404 -0.443177,1.32657 -1.401982,2.12802 l -1.242817,1.03817 -3.351218,-0.005 -3.351215,-0.005 -0.928627,-1.11826 -0.928624,-1.11879 0.850593,-6.7505 0.851112,-6.751 1.212845,-1.05577 1.212847,-1.05574 3.405476,-0.003 z m 107.83011,0 0.90589,1.09088 c 0.84672,1.02004 0.89483,1.19562 0.74052,2.69078 l -0.16485,1.59941 h -2.204 c -2.06444,0 -2.19417,-0.0358 -2.05517,-0.56743 0.13647,-0.52181 0.008,-0.5674 -1.5875,-0.5674 -1.60964,0 -1.73643,0.0461 -1.73943,0.63821 -0.002,0.35115 -0.0811,0.92575 -0.17518,1.27693 -0.16911,0.63047 -0.13805,0.6387 2.6758,0.6387 h 2.84686 l 0.88728,1.11985 0.88729,1.12033 -0.43822,3.34192 -0.43821,3.3419 -1.20561,1.05939 v 0.002 l -1.20562,1.05883 -3.83077,-0.0119 -3.83077,-0.0119 -0.90693,-1.05783 c -0.85255,-0.99422 -0.89757,-1.15509 -0.74104,-2.67165 l 0.16692,-1.61386 h 2.19883 c 1.92,0 2.19396,0.063 2.15956,0.4966 -0.0326,0.41111 0.24137,0.51139 1.59215,0.58187 1.53722,0.0802 1.63256,0.0474 1.63556,-0.5674 0.002,-0.35896 0.0806,-0.94025 0.17467,-1.2914 0.16905,-0.63045 0.13727,-0.6382 -2.65204,-0.6382 h -2.82308 l -0.894,-1.11258 -0.89401,-1.1126 0.43719,-3.3569 0.43718,-3.3569 1.18959,-1.05161 1.18959,-1.05214 3.83078,-0.008 z m 61.57712,0 0.90537,1.09088 c 0.74089,0.89254 0.87063,1.13882 0.78807,2.18797 -0.0118,0.14989 -0.0277,0.31591 -0.047,0.50281 l -0.108,1.04439 -0.0574,0.55346 h -2.03398 v 0.002 h -0.17001 c -2.06443,0 -2.19418,-0.0358 -2.05518,-0.5674 0.13647,-0.52183 0.008,-0.56742 -1.5875,-0.56742 -1.60964,0 -1.73642,0.0461 -1.73942,0.63823 -0.002,0.35112 -0.0806,0.92575 -0.17467,1.2769 -0.16912,0.63048 -0.13856,0.63873 2.67529,0.63873 h 2.84737 l 0.20412,0.25786 0.68213,0.86196 0.8878,1.12036 -0.43821,3.34189 v 0.002 l -0.43822,3.34037 -1.20561,1.05936 v 0.002 l -1.2051,1.05883 -3.83077,-0.0119 -3.83077,-0.0119 -0.90744,-1.05783 c -0.85257,-0.99422 -0.89705,-1.15509 -0.74053,-2.67165 l 0.1664,-1.61385 h 2.19884 c 1.92001,0 2.19395,0.063 2.15955,0.49659 -0.0326,0.41111 0.24138,0.51139 1.59215,0.58187 1.53722,0.0802 1.63256,0.0474 1.63556,-0.5674 0.002,-0.35896 0.0811,-0.94025 0.17518,-1.29137 0.16904,-0.63048 0.13678,-0.63823 -2.65255,-0.63823 h -2.82308 l -0.894,-1.11257 -0.894,-1.1126 0.43718,-3.35691 0.43718,-3.3569 1.18959,-1.05161 1.18959,-1.05214 3.83129,-0.008 z m -48.64664,0.0241 c 1.13861,0 2.69977,0.0105 4.40851,0.0315 l 6.21358,0.0765 -0.23978,2.05722 -0.23978,2.05724 h -1.92133 -1.92081 l -0.80977,6.81045 -0.80926,6.80993 h -2.48512 -2.4846 l 0.13901,-0.78034 c 0.12734,-0.71427 1.54926,-12.368 1.54926,-12.69741 0,-0.0787 -0.84297,-0.14263 -1.87327,-0.14263 h -1.87327 l 0.20257,-2.05724 c 0.11137,-1.13149 0.23328,-2.09172 0.27079,-2.13371 0.0188,-0.021 0.73467,-0.0315 1.87327,-0.0315 z m -62.73261,0.002 c 0.52645,0.005 0.85318,0.023 0.85318,0.0527 0,0.0594 0.44698,4.01481 0.99322,8.79014 0.54625,4.77536 0.99322,8.75329 0.99322,8.84031 0,0.087 -1.08565,0.15812 -2.41226,0.15812 h -2.41173 v -0.82786 c 0,-1.54775 -0.2057,-1.72598 -1.99316,-1.72598 h -1.64848 l -0.40153,1.20613 -0.40101,1.20613 -2.44067,0.0816 -2.44068,0.0817 0.84698,-2.35178 c 0.4656,-1.29352 1.89493,-5.28892 3.17655,-8.87854 l 2.33009,-6.52622 2.90473,-0.0811 c 0.79875,-0.0222 1.5251,-0.0302 2.05155,-0.0253 z m 92.98192,4.22093 c -1.54298,0 -1.54578,0.001 -1.73271,0.99787 -0.1027,0.54891 -0.10538,1.1298 -0.006,1.29088 0.10019,0.16092 0.8399,0.25482 1.64486,0.20825 l 1.46451,-0.0853 0.0873,-1.2056 0.0873,-1.20613 z m -96.01584,4.35271 c -0.11325,-0.0319 -0.26076,0.36171 -0.63769,1.39319 -0.26234,0.71795 -0.22917,0.78031 0.41703,0.78031 0.74677,0 0.83824,-0.36216 0.42943,-1.70222 -0.0853,-0.27962 -0.14082,-0.45218 -0.20877,-0.47128 z m 55.32685,4.72787 h 2.08876 2.08877 l -0.002,0.7803 c -0.001,0.42919 -0.083,1.45079 -0.18139,2.27016 l -0.1788,1.48931 h -2.08876 -2.08876 l 0.002,-0.78031 c 10e-4,-0.42918 0.0829,-1.45079 0.18138,-2.27015 z"
             id="path4415"
             inkscape:connector-curvature="0"
             sodipodi:nodetypes="cccccccscsccccscccccccscccssscccccccsccccccsccccccccccsccsccsccccscccsccsccccsccscscccccsscssssccccccsscsccccsscccccscscccccccccccccccccccscccccccccccccscccsccccsccccccscccccccccscsccsccscccccsccccccccccccsscsccccsccccsccccccssccscccccccccccscccscccsscscccccccscsscccccsccccccccccscccccccccccsccscscccccccscccsccsccssccccsccccsscccccccccccscccccsccsscccccccccccccccccsccscccccscccscccccccccccccscccscccccccscccscccssscccccccccccccccccccscsccscccccccccccccsccccscccccccccccccccccscsccscccccccccccccccsccccscccccccccccccccccccccssccccccscsscssccccccsccccccccccccccsccccccccccccc" />
          <path
             style="fill:#000000;stroke-width:0.34851211"
             d="m 34.660837,248.50814 c -0.624714,-0.3809 -1.450763,-1.20367 -1.835652,-1.82838 -0.6705,-1.08828 -0.695909,-1.64168 -0.606708,-13.2148 l 0.09313,-12.07893 1.070313,-1.33878 c 1.812482,-2.2671 2.768817,-2.55742 8.426634,-2.55802 l 4.966294,-5.5e-4 v -2.9016 c 0,-2.5824 0.08878,-2.98497 0.806621,-3.65938 1.046445,-0.98309 2.363564,-0.96367 3.314775,0.0489 0.650623,0.69255 0.757778,1.21004 0.757778,3.65938 v 2.85276 l 4.966294,5.6e-4 c 5.657807,6.3e-4 6.614141,0.29092 8.426637,2.55802 l 1.070326,1.33878 0.09313,12.07894 c 0.08918,11.57312 0.06375,12.12651 -0.606707,13.21479 -0.384903,0.62473 -1.210952,1.4475 -1.835666,1.82839 -1.08147,0.65939 -1.778248,0.69253 -14.553565,0.69253 -12.775327,0 -13.472106,-0.0332 -14.553576,-0.69253 z m 9.674402,-7.8434 v -1.21979 h -2.439581 -2.439593 v 1.21979 1.21979 h 2.439593 2.439581 z m 7.318754,0 v -1.21979 h -2.439581 -2.439593 v 1.21979 1.21979 h 2.439593 2.439581 z m 7.318757,0 v -1.21979 h -2.439583 -2.439594 v 1.21979 1.21979 h 2.439594 2.439583 z m -15.906144,-8.32143 c 2.443282,-1.02086 2.436393,-4.29542 -0.01185,-5.31809 -0.990266,-0.41376 -1.329237,-0.41376 -2.319503,0 -2.400775,1.00311 -2.454728,4.27274 -0.0876,5.30348 1.331463,0.57976 1.069444,0.57818 2.418241,0.0146 z m 14.637511,0 c 2.443282,-1.02086 2.436393,-4.29542 -0.01054,-5.31809 -0.990282,-0.41376 -1.329254,-0.41376 -2.31952,0 -2.400762,1.00311 -2.454728,4.27274 -0.08746,5.30348 1.33145,0.57976 1.069443,0.57818 2.41823,0.0146 z m -32.127782,8.7346 c -0.714864,-0.76093 -0.757779,-1.13248 -0.757779,-6.56097 0,-5.56435 0.02661,-5.77939 0.806621,-6.51214 0.591243,-0.55544 1.242631,-0.75778 2.43958,-0.75778 h 1.632973 v 7.31876 7.31875 h -1.681815 c -1.307358,0 -1.850523,-0.17959 -2.43958,-0.80662 z m 43.154771,-6.51213 v -7.31876 h 1.681802 c 1.307359,0 1.850524,0.17959 2.439594,0.80661 0.71485,0.76094 0.757765,1.1325 0.757765,6.56099 0,5.56435 -0.02661,5.77938 -0.806607,6.51213 -0.591244,0.55544 -1.242644,0.75778 -2.439594,0.75778 h -1.63296 z"
             id="path4417"
             inkscape:connector-curvature="0" />
        </g>
      </g>
    </g>
  </g>
</svg>
