<?xml version="1.0" standalone="no"?>
<!DOCTYPE svg PUBLIC "-//W3C//DTD SVG 1.1//EN" "http://www.w3.org/Graphics/SVG/1.1/DTD/svg11.dtd" >
<svg xmlns="http://www.w3.org/2000/svg" xmlns:xlink="http://www.w3.org/1999/xlink" version="1.1">
<metadata>
Created by FontForge 20170910 at Thu May 24 19:42:06 2018
 By Jimmy Wärting
Imagex 2018
</metadata>
<defs>
<font id="FastForward" horiz-adv-x="2450" >
  <font-face 
    font-family="Fast Forward"
    font-weight="400"
    font-stretch="normal"
    units-per-em="2048"
    panose-1="3 0 6 0 0 0 0 0 0 0"
    ascent="1638"
    descent="-410"
    cap-height="2411"
    bbox="-120 -1185 4052 2851"
    underline-thickness="150"
    underline-position="-292"
    unicode-range="U+0020-20AC"
  />
<missing-glyph horiz-adv-x="1597" 
d="M-120 0l295 2405h1732l-295 -2405h-1732zM-30 80h1572l275 2245h-1572z" />
    <glyph glyph-name=".notdef" horiz-adv-x="1597" 
d="M-120 0l295 2405h1732l-295 -2405h-1732zM-30 80h1572l275 2245h-1572z" />
    <glyph glyph-name=".null" horiz-adv-x="0" 
 />
    <glyph glyph-name="nonmarkingreturn" horiz-adv-x="550" 
 />
    <glyph glyph-name="space" unicode=" " horiz-adv-x="819" 
 />
    <glyph glyph-name="space" unicode="&#xa0;" horiz-adv-x="819" 
 />
    <glyph glyph-name="exclam" unicode="!" horiz-adv-x="1218" 
d="M460 2411h710q123 0 106 -141l-18 -141h270l-328 -2675h-270l-16 -134q-17 -135 -152 -135h-686q-135 0 -118 135l16 134h-94l328 2675h94l18 141q17 141 140 141zM425 2311l-245 -1994h756l245 1994h-756zM146 41l-93 -757h756l93 757h-756z" />
    <glyph glyph-name="quotedbl" unicode="&#x22;" horiz-adv-x="2291" 
d="M455 2417h669q141 0 126 -123l-21 -165h187l21 170q15 118 144 118h687q135 0 119 -129l-20 -159h234l-328 -2675h-2393l328 2675h70l21 165q15 123 156 123zM402 2317l-93 -757q0 -9 330 -375h375l139 1132h-751zM1534 2317l-139 -1132h381q8 0 422 375l93 757h-757z
" />
    <glyph glyph-name="numbersign" unicode="#" horiz-adv-x="3171" 
d="M1153 2417h675q95 0 122 -53l7 -47q-57 -169 -60 -188h194q77 264 109 264q2 14 97 24h675q95 0 122 -53q-2 -18 6 -47l-65 -188h446l-328 -2675h-1015q-72 -252 -119 -252q-41 -11 -71 -11h-680q-124 6 -112 99l56 164h-218q-65 -258 -137 -258q-23 -5 -47 -5h-686
q-117 11 -109 76q2 13 -2 23l55 164h-188l328 2675h739q78 276 128 276q55 12 78 12zM1106 2317q-180 -556 -206 -622h-405l-92 -751h241l10 -5q-35 -99 -101 -305h-393l-93 -757h235l-190 -587h733l196 587h404l-189 -587h733q2 20 195 587h435l93 757h-270v5
q92 305 108 305h405l92 751h-241l-10 6q183 537 205 616h-751l-206 -622h-387l1 6l199 616h-751zM1415 937h375q12 -2 11 -12q-90 -299 -107 -299h-376q-12 0 -11 12q96 299 108 299zM-43 -736h12l-1 -6h-12z" />
    <glyph glyph-name="dollar" unicode="$" horiz-adv-x="2309" 
d="M1061 2675h862q118 0 103 -129l-16 -129q85 0 151 -106l165 -182h293l-328 -2675h-311q-282 -252 -301 -252q-24 -11 -65 -11l-21 -165q-16 -135 -145 -135h-839q-129 0 -113 135l21 165h-123q-95 0 -163 111l-140 152h-211l328 2675h188q309 276 327 276q43 12 72 12
h118l16 129q15 129 132 129zM1032 2581l-32 -264h-252q-237 -204 -428 -381l-139 -1132q178 -212 334 -382h898l-45 -369q-2 -12 -14 -12h-499q-11 0 -9 12l22 182h-757l-69 -563q178 -212 334 -382h252l-37 -299h898l37 299h129q7 0 421 376l139 1132q-178 211 -334 381
h-897l47 381h522l-23 -187h756l69 563q-178 211 -334 381h-123l32 264h-898z" />
    <glyph glyph-name="percent" unicode="%" horiz-adv-x="2485" 
d="M1798 2417h681q86 0 116 -53q-3 -47 7 -47q-3 -19 -100 -188h293l-328 -2675h-399l-15 -123q-17 -140 -140 -140h-710q-123 0 -106 140l15 123h-176q-128 -258 -191 -258q-22 -5 -46 -5h-687q-117 0 -105 99q3 27 84 164h-111l328 2675h188l21 165q14 117 131 117h710
q123 0 107 -129l-19 -153h182q31 37 147 241q39 47 123 47zM7 -710h733q1 10 1762 3027h-745q-40 -49 -521 -892q-1142 -1972 -1229 -2135zM513 2311l-92 -751h756l92 751h-756zM1284 41l-92 -751h756l92 751h-756z" />
    <glyph glyph-name="ampersand" unicode="&#x26;" horiz-adv-x="2280" 
d="M1090 2675h722q111 0 98 -112l-18 -146h376q135 0 118 -135l-19 -153h223l-328 -2675h-223l-15 -123q-17 -140 -141 -140h-387l-23 -182q-14 -118 -137 -118h-698q-129 0 -113 129l21 171h-129q-90 0 -147 93l-155 170h-235l328 2675h217q309 276 327 276q29 12 79 12
h111l16 135q15 123 132 123zM1062 2581l-32 -264h-252q-238 -204 -429 -381l-116 -945l164 -193q-9 -2 -211 -188l-116 -944q195 -233 336 -376h240q12 -2 11 -11l-36 -288h756l37 299h505l92 751h-1126q-12 0 -10 12l45 369h757l93 757h-757l47 381h1138l93 757h-505
l32 264h-756z" />
    <glyph glyph-name="quotesingle" unicode="'" horiz-adv-x="1183" 
d="M438 2417h686q129 0 114 -118l-21 -170h276l-328 -2675h-1285l328 2675h59l20 159q16 129 151 129zM390 2317l-139 -1132h376q236 204 427 381l93 751h-757z" />
    <glyph glyph-name="parenleft" unicode="(" horiz-adv-x="1517" 
d="M884 2851h645q129 0 115 -118l-75 -604h258l-328 -2675h-258l-59 -481q-14 -117 -137 -117h-657q-93 0 -153 100q-289 316 -286 340q-10 23 -4 65l11 93h-76l328 2675h76l26 206q13 107 121 176q354 328 387 328q24 12 66 12zM414 2370l-373 -3039q0 -9 329 -375h716
l92 751h-334l281 2287h334l93 757h-710q-236 -204 -428 -381z" />
    <glyph glyph-name="parenright" unicode=")" horiz-adv-x="1552" 
d="M514 2851h645q103 0 199 -147q255 -270 250 -311q2 -31 -1 -58l-26 -206h281l-328 -2675h-281l-11 -93q-12 -93 -121 -165q-356 -328 -380 -328q-24 -12 -66 -12h-657q-123 0 -109 117l59 481h-88l328 2675h88l75 604q14 118 143 118zM467 2751l-93 -757h334l-281 -2287
h-334l-92 -751h715q8 0 422 375l373 3039q-178 211 -334 381h-710z" />
    <glyph glyph-name="plus" unicode="+" horiz-adv-x="1904" 
d="M208 2129h2006l-328 -2675h-2006zM690 1560l-47 -381h-381l-93 -757h381l-46 -375h757l46 375h375l93 757h-375l47 381h-757z" />
    <glyph glyph-name="comma" unicode="," horiz-adv-x="1112" 
d="M208 2129h1214l-328 -2675h-176l-18 -146q-10 -86 -125 -164q-347 -323 -381 -323q-22 -6 -46 -6h-335q-123 0 -106 141l61 498h-88zM141 47l-139 -1132h381q7 0 421 375l93 757h-756z" />
    <glyph glyph-name="hyphen" unicode="-" horiz-adv-x="1904" 
d="M208 2129h2006l-328 -2675h-2006zM256 1179l-93 -757h1514l93 757h-1514z" />
    <glyph glyph-name="period" unicode="." horiz-adv-x="1200" 
d="M208 2129h1302l-328 -2675h-252l-16 -134q-16 -129 -139 -129h-710q-117 0 -103 117l18 146h-100zM146 41l-92 -751h756l92 751h-756z" />
    <glyph glyph-name="zero" unicode="0" horiz-adv-x="2221" 
d="M788 2399h1079q93 0 151 -100l155 -170h358l-328 -2675h-346q-308 -273 -328 -275l-59 -6h-1079q-94 0 -157 106l-160 175h-194l328 2675h205q297 264 315 264zM324 1924l-279 -2276q0 -9 329 -375h1138q7 0 422 375l279 2276q1 7 -330 375h-1138q-9 -1 -421 -375z
M1040 1549h364q12 -2 11 -12l-185 -1508h-387l185 1508q2 12 12 12z" />
    <glyph glyph-name="one" unicode="1" horiz-adv-x="1499" 
d="M793 2399h698q129 0 112 -135l-17 -135h223l-328 -2675h-223l-18 -146q-17 -135 -146 -135h-698q-129 0 -112 135l18 146h-422l328 2675h211q293 258 302 258q43 12 72 12zM330 1924l-46 -375h363q12 -2 11 -12l-278 -2264h757l371 3026h-757q-9 -1 -421 -375z" />
    <glyph glyph-name="two" unicode="2" horiz-adv-x="2238" 
d="M811 2399h1079q93 0 152 -100l155 -170h351l-328 -2675h-187l-19 -158q-16 -123 -145 -123h-1830q-129 0 -113 129l19 152h-65l328 2675h229q296 264 314 264zM347 1924l-70 -569h751l23 182q3 12 13 12h363q12 -2 11 -12l-45 -364q-1247 -1114 -1278 -1144l-93 -756
h1889l93 756h-751q5 6 844 757l139 1138q1 7 -329 375h-1138q-9 -1 -422 -375z" />
    <glyph glyph-name="three" unicode="3" horiz-adv-x="2291" 
d="M453 2399h1449q107 0 174 -111q142 -157 144 -159h381l-328 -2675h-375q-304 -269 -315 -269q-42 -12 -72 -12h-1455q-129 0 -112 135l18 146h-82l328 2675h82l17 135q17 135 146 135zM411 2299l-92 -750h1126q12 -2 11 -12l-45 -364q-1 -12 -13 -12h-745l-92 -750h757
l-47 -382h-1138l-93 -756h1513q237 204 428 381l115 938l-163 194l210 194l116 938q-178 212 -335 381h-1513z" />
    <glyph glyph-name="four" unicode="4" horiz-adv-x="2626" 
d="M1720 2405h499q129 0 115 -117l-20 -159h622l-328 -2675h-622l-19 -158q-15 -117 -132 -117h-710q-123 0 -107 129l18 146h-1156l328 2675h1126q296 263 315 264q41 12 71 12zM184 980l-116 -945h1127q11 -2 10 -12l-91 -744h757l92 756h375l93 751h-375l186 1519h-569
q-832 -734 -1489 -1325zM1345 1167l-45 -369q-1 -12 -12 -12h-364v6q2 9 421 375z" />
    <glyph glyph-name="five" unicode="5" horiz-adv-x="2502" 
d="M424 2405h1965q129 0 115 -117l-20 -159h328l-328 -2675h-481q-299 -269 -326 -269q-33 -6 -54 -6h-1231q-87 0 -161 117q-4 2 -146 158h-205l328 2675h47l18 141q16 135 151 135zM377 2305l-211 -1718h1278l-68 -558h-522l46 376h-756l-92 -751q-1 -9 329 -375h1279
q236 204 427 381l160 1302q-178 211 -334 381h-898l25 206h1279l93 756h-2035z" />
    <glyph glyph-name="six" unicode="6" horiz-adv-x="2432" 
d="M823 2405h1196q107 0 159 -94l165 -182h399l-328 -2675h-393q-303 -269 -320 -269q-33 -6 -54 -6h-1232q-91 0 -151 100l-161 175h-223l328 2675h229q296 263 314 264q42 12 72 12zM347 1924l-278 -2264q178 -212 336 -381h1278q8 0 422 375l139 1132q-178 212 -336 381
h-897l47 382h522l-23 -188h757l69 563q-178 211 -335 381h-1272q-237 -204 -429 -381zM919 411h522l-47 -382h-522z" />
    <glyph glyph-name="seven" unicode="7" horiz-adv-x="2326" 
d="M465 2405h1812q141 0 126 -123l-19 -153h252l-328 -2675h-1249q-144 -269 -197 -269q-33 -6 -54 -6h-751q-117 0 -104 100q2 23 91 175h-164l328 2675h88l18 147q16 129 151 129zM418 2305l-93 -756h1050q-1256 -2148 -1322 -2270h797l1356 2252q6 10 8 23l92 751h-1888z
" />
    <glyph glyph-name="eight" unicode="8" horiz-adv-x="2432" 
d="M765 2411h1232q86 0 151 -106l160 -176h434l-328 -2675h-446q-289 -258 -307 -258q-42 -11 -72 -11h-1208q-102 0 -189 135l-124 134h-188l328 2675h176q310 276 327 276q33 6 54 6zM730 2311q-9 -1 -422 -375l-116 -945l164 -193q-9 -2 -211 -188l-116 -944
q178 -212 334 -382h1273q8 0 422 376l117 950l-159 188l205 187l117 951q1 7 -330 375h-1278zM1019 1560h510q11 -2 10 -11l-45 -370h-522zM879 422h522l-47 -381h-522z" />
    <glyph glyph-name="nine" unicode="9" horiz-adv-x="2379" 
d="M789 2411h1231q86 0 152 -106l159 -176h358l-328 -2675h-375q-296 -263 -314 -263l-71 -6h-1197q-98 0 -152 94l-161 175h-211l328 2675h194q306 276 333 276q32 6 54 6zM753 2311q-236 -204 -428 -381l-138 -1126q178 -212 334 -382h898l-47 -381h-523l23 188h-756
l-69 -563q178 -212 334 -382h1273q236 204 428 382l279 2270q1 7 -329 375h-1279zM1048 1560h499q11 -2 10 -11l-45 -370h-523l45 370q4 11 14 11z" />
    <glyph glyph-name="colon" unicode=":" horiz-adv-x="1130" 
d="M208 2129h1232l-328 -2675h-229l-18 -146q-14 -117 -131 -117h-710q-123 0 -107 129l16 134h-53zM232 1073l-92 -750h756l92 750h-756zM105 41l-92 -751h756l92 751h-756z" />
    <glyph glyph-name="semicolon" unicode=";" horiz-adv-x="1221" 
d="M211 2129h1320l-329 -2675h-293l-16 -134q-12 -95 -120 -165q-363 -334 -387 -334q-33 -6 -54 -6h-334q-118 0 -104 117l64 522h-76zM251 1073l-92 -750h757l92 750h-757zM125 47l-139 -1132h381q8 0 422 375l93 757h-757z" />
    <glyph glyph-name="equal" unicode="=" horiz-adv-x="1869" 
d="M208 2129h1971l-328 -2675h-1971zM290 1642l-92 -750h1513l92 750h-1513zM164 622l-93 -757h1513l93 757h-1513z" />
    <glyph glyph-name="question" unicode="?" horiz-adv-x="2203" 
d="M783 2411h1091q85 0 151 -106l160 -176h328l-328 -2675h-727l-19 -152q-14 -117 -143 -117h-686q-135 0 -118 135l16 134h-628l328 2675h194q301 266 321 276zM326 1936l-70 -569h751l22 182q3 11 13 11h364q11 -2 10 -11l-44 -364q-2 -12 -14 -12h-540l-106 -862h757
l25 205h264q14 5 317 282l140 1138q1 7 -330 375h-1138q-9 -1 -421 -375zM679 41l-93 -757h757l93 757h-757z" />
    <glyph glyph-name="A" unicode="A" horiz-adv-x="2725" 
d="M1120 2399h921q129 0 114 -123q13 -41 17 -147h863l-328 -2675h-229q22 -152 18 -187q-12 -94 -135 -94h-769q-129 0 -119 82q-8 24 -22 199h-469q-74 -269 -128 -269q-41 -12 -71 -12h-774q-129 0 -116 106q61 163 63 175h-29l328 2675h662q74 224 101 241q42 29 102 29
zM1073 2299l-1082 -3026h833l154 434h545l40 -434h839l-343 3026h-986zM1404 873l58 -397l-14 -5h-183q-12 0 -10 11z" />
    <glyph glyph-name="B" unicode="B" horiz-adv-x="2426" 
d="M500 2399h1596q94 0 151 -100l155 -170h334l-328 -2675h-322q-308 -273 -328 -275l-59 -6h-1596q-129 0 -112 135l18 146h-129l328 2675h129l17 135q17 135 146 135zM458 2299l-371 -3026h1654q236 204 428 381l115 938l-164 194l211 194l116 938q-178 212 -335 381
h-1654zM1644 1537l-45 -364h-523l45 364h523zM983 411h523l-47 -382h-523z" />
    <glyph glyph-name="C" unicode="C" horiz-adv-x="2332" 
d="M876 2399h1079q93 0 151 -100l155 -170h381l-328 -2675h-369q-307 -275 -333 -275q-42 -6 -66 -6h-1067q-94 0 -157 106l-160 175h-282l328 2675h293q293 258 302 258q43 12 73 12zM406 1918l-278 -2264q178 -212 334 -381h1132q237 204 429 381l92 751h-757l-46 -376
h-381l185 1508q2 12 12 12h370l-47 -382h757l93 757q1 7 -330 375h-1138q-236 -204 -427 -381z" />
    <glyph glyph-name="D" unicode="D" 
d="M494 2399h1596q94 0 151 -100l155 -170h364l-328 -2675h-352q-308 -273 -328 -275l-59 -6h-1596q-129 0 -113 129l19 152h-123l328 2675h123l18 141q16 129 145 129zM452 2299l-371 -3026h1654q7 0 421 375l279 2276q1 7 -329 375h-1654zM1117 1549h522l-186 -1520h-522z
" />
    <glyph glyph-name="E" unicode="E" 
d="M535 2405h1848q135 0 119 -129l-18 -147h276l-328 -2675h-276l-18 -146q-16 -129 -139 -129h-1871q-124 0 -106 141l16 134h-158l328 2675h158l18 141q16 135 151 135zM488 2305l-371 -3026h1918l92 750h-1161l47 382h886l92 756h-886l47 382h1161l93 756h-1918z" />
    <glyph glyph-name="F" unicode="F" horiz-adv-x="2228" 
d="M488 2405h1830q130 0 116 -117l-20 -159h124l-328 -2675h-1262l-16 -134q-18 -141 -142 -141h-709q-124 0 -106 141l16 134h-111l328 2675h111l18 141q16 135 151 135zM441 2305l-371 -3026h757l139 1132h862l92 756h-862l47 382h1144l93 756h-1901z" />
    <glyph glyph-name="G" unicode="G" 
d="M870 2405h1208q101 0 189 -135l129 -141h364l-328 -2675h-364q-303 -269 -320 -269q-33 -6 -54 -6h-1232q-91 0 -151 100l-161 175h-270l328 2675h276q296 263 314 264q42 12 72 12zM401 1930l-279 -2276q0 -9 329 -375h1279q8 0 422 375l161 1314h-1015l-89 -727h258
l-26 -212h-510q-12 0 -11 12l184 1496q3 12 13 12h510l-46 -376h757l92 751q-179 211 -335 381h-1273q-8 -1 -421 -375z" />
    <glyph glyph-name="H" unicode="H" horiz-adv-x="2567" 
d="M488 2405h739q141 0 126 -123l-19 -153h311l19 153q15 123 156 123h739q135 0 119 -135l-18 -141h217l-328 -2675h-217l-16 -134q-18 -141 -141 -141h-769q-123 0 -108 123l19 152h-311l-19 -152q-15 -123 -138 -123h-768q-124 0 -106 141l16 134h-111l328 2675h111
l18 141q16 135 151 135zM441 2305l-371 -3026h816l139 1132h510l-139 -1132h815l371 3026h-815l-138 -1126q-2 -12 -14 -12h-487q-11 0 -9 12l138 1126h-816z" />
    <glyph glyph-name="I" unicode="I" horiz-adv-x="1967" 
d="M489 2411h1490q123 0 106 -141l-18 -141h210l-328 -2675h-210l-16 -134q-17 -135 -151 -135h-1467q-135 0 -119 129l17 140h-123l328 2675h123l19 153q16 129 139 129zM454 2311l-93 -757h375q12 -1 10 -11l-182 -1484q-1 -12 -13 -12h-375l-94 -763h1537l94 763h-399
l183 1496q4 11 14 11h387l93 757h-1537z" />
    <glyph glyph-name="J" unicode="J" horiz-adv-x="2443" 
d="M1726 2411h704q123 0 108 -123l-20 -159h235l-328 -2675h-399q-289 -258 -307 -258q-42 -11 -72 -11h-1208q-99 0 -152 94l-161 175h-246l328 2675h1360l20 159q15 123 138 123zM1691 2311l-277 -2258q-2 -12 -14 -12h-504q-12 0 -10 12l91 745h-751l-140 -1138
q1 -9 330 -376h1278q8 0 422 376l326 2651h-751z" />
    <glyph glyph-name="K" unicode="K" horiz-adv-x="2614" 
d="M472 2411h768q123 0 108 -123l-20 -159h276q154 276 198 276l60 6h821q117 0 105 -100q-5 -35 -105 -182h241l-328 -2675h-235q60 -129 55 -175q-12 -94 -141 -94h-797q-120 0 -144 123q-53 137 -52 146h-282l-18 -146q-15 -123 -155 -123h-740q-134 0 -117 135l16 134
h-106l328 2675h106l18 141q17 141 140 141zM436 2311l-372 -3027h816l139 1132q11 0 430 -1132h874q-582 1412 -617 1520q939 1433 983 1507h-868l-696 -1126h-11l138 1126h-816z" />
    <glyph glyph-name="L" unicode="L" horiz-adv-x="2215" 
d="M489 2411h710q117 0 103 -117l-21 -165h1244l-328 -2675h-270l-17 -140q-16 -129 -151 -129h-1654q-135 0 -119 129l17 140h-123l328 2675h123l19 153q16 129 139 129zM454 2311l-372 -3027h1724l93 757h-967l279 2270h-757z" />
    <glyph glyph-name="M" unicode="M" horiz-adv-x="3130" 
d="M496 2417h669q127 0 144 -112q61 -172 72 -176h722q8 2 167 253q43 35 121 35h669q140 0 125 -123l-21 -165h276l-328 -2675h-276l-17 -140q-15 -123 -138 -123h-704q-123 0 -108 123l17 140h-287q-134 -246 -189 -246l-30 -6q-80 0 -125 182q-8 2 -26 70h-287l-17 -140
q-15 -123 -138 -123h-704q-124 0 -109 123l17 140h-111l328 2675h111l21 165q15 123 156 123zM443 2317l-372 -3027h751l138 1126h12q414 -1114 426 -1114q347 549 694 1114h12l-138 -1126h751l372 3027h-757l-702 -1126h-6l-424 1126h-757z" />
    <glyph glyph-name="N" unicode="N" horiz-adv-x="2732" 
d="M520 2417h686q119 0 137 -118q79 -169 85 -170h440l21 170q15 118 144 118h686q135 0 119 -129l-20 -159h224l-328 -2675h-224l-16 -134q-16 -129 -139 -129h-710q-82 0 -109 64q-76 185 -93 199h-452l-18 -146q-14 -117 -131 -117h-710q-123 0 -106 140l15 123h-141
l328 2675h141l19 153q17 135 152 135zM472 2317l-372 -3027h757l162 1320h6q4 -18 589 -1320h757l372 3027h-757l-165 -1337h-6q-547 1259 -592 1337h-751z" />
    <glyph glyph-name="O" unicode="O" horiz-adv-x="2520" 
d="M919 2417h1208q99 0 158 -100l170 -188h375l-328 -2675h-399q-285 -252 -295 -252q-24 -11 -65 -11h-1232q-87 0 -162 117l-135 146h-334l328 2675h311q314 282 340 282zM449 1936l-279 -2270q0 -9 329 -376h1279q7 0 422 376l279 2276q1 7 -329 375h-1273
q-237 -204 -428 -381zM1160 1560h522l-187 -1519h-522z" />
    <glyph glyph-name="P" unicode="P" 
d="M490 2417h1578q107 0 158 -94l176 -194h358l-328 -2675h-1484l-16 -134q-16 -129 -140 -129h-709q-118 0 -104 117l18 146h-117l328 2675h117l21 170q15 118 144 118zM443 2317l-372 -3027h757l139 1132h897q237 204 429 382l139 1132q-179 211 -335 381h-1654z
M1107 1560h522l-47 -381h-6h-516z" />
    <glyph glyph-name="Q" unicode="Q" 
d="M834 2399h1203q107 0 174 -111l144 -159h405l-328 -2675h-628q-53 -46 -135 -46h-53l-12 -100q-17 -135 -146 -135h-839q-129 0 -112 135l12 100h-53q-81 0 -123 46h-463l328 2675h240q294 263 321 264q41 6 65 6zM359 1918l-250 -2029q178 -212 335 -382h188l-29 -234
h897l29 234h188q237 204 427 382l250 2029q-178 212 -335 381h-1273q-236 -204 -427 -381zM1081 1549h499q12 -2 11 -12l-157 -1273h-522l157 1273q2 12 12 12z" />
    <glyph glyph-name="R" unicode="R" horiz-adv-x="2360" 
d="M453 2399h1536q93 0 151 -100l155 -170h375l-328 -2675h-164q41 -148 36 -187q-12 -94 -135 -94h-781q-109 0 -125 76l-51 205h-170l-19 -158q-16 -123 -145 -123h-732q-129 0 -113 123l19 158h-82l328 2675h82l18 147q16 123 145 123zM1013 432l257 -1159h851
q-283 1133 -288 1190q91 75 362 323l139 1138q1 7 -329 375h-1594l-371 -3026h791l141 1159h41zM1121 1549h411l-47 -388h-411q-11 0 -10 12l45 364q2 12 12 12z" />
    <glyph glyph-name="S" unicode="S" horiz-adv-x="2326" 
d="M782 2399h1220q93 0 151 -100l155 -170h328l-328 -2675h-316q-307 -275 -333 -275q-42 -6 -66 -6h-1208q-94 0 -156 106l-161 175h-188l328 2675h199q293 258 302 258q43 12 73 12zM739 2299q-8 -1 -421 -375l-139 -1138q-1 -9 329 -375h898l-47 -382h-522l23 188h-751
l-70 -569q0 -9 329 -375h1273q237 204 428 381l139 1132q0 7 -329 375h-892q-11 0 -10 12l45 364q3 12 12 12h511l-24 -194h756l70 569q1 7 -329 375h-1279z" />
    <glyph glyph-name="T" unicode="T" horiz-adv-x="2497" 
d="M436 2399h2070q129 0 113 -129l-18 -141h206l-328 -2675h-845l-19 -152q-16 -129 -145 -129h-792q-129 0 -113 129l19 152h-704l328 2675h65l18 141q16 129 145 129zM393 2299l-92 -750h628q12 -2 11 -12l-278 -2264h850l278 2264q3 12 13 12h628l92 750h-2130z" />
    <glyph glyph-name="U" unicode="U" 
d="M436 2405h674q135 0 119 -129l-18 -147h329l20 159q14 117 143 117h686q135 0 119 -135l-18 -141h270l-328 -2675h-429q-302 -269 -320 -269q-33 -6 -54 -6h-1232q-91 0 -151 100l-161 175h-205l328 2675h53l19 153q15 123 156 123zM383 2305l-325 -2651q-1 -9 329 -375
h1279q7 0 421 375l325 2651h-757l-279 -2276h-522l279 2276h-750z" />
    <glyph glyph-name="V" unicode="V" horiz-adv-x="2425" 
d="M376 2405h675q146 0 129 -141q6 0 13 -135h405q66 270 139 270l59 6h686q123 0 113 -88q6 0 4 -12l-57 -176h193l-328 -2675h-756q-15 0 -62 -170q-32 -105 -131 -105h-844q-116 11 -108 76l-17 199h-609l328 2675h40q-13 142 -20 170q29 100 113 100q0 6 35 6zM329 2305
l274 -3026h886q1008 3008 1010 3026h-750l-526 -1607h-6q-130 1567 -137 1607h-751z" />
    <glyph glyph-name="W" unicode="W" horiz-adv-x="3742" 
d="M1062 2405q135 0 119 -129q13 -147 23 -147h393q72 258 120 258q32 18 84 18h680q135 0 120 -123q5 0 16 -153h399q77 253 109 253q1 13 95 23h681q86 0 117 -53q-2 -17 6 -47q-26 -69 -57 -176h85l-328 -2675h-660q-71 -258 -114 -258q-20 -17 -79 -17h-833
q-123 0 -109 111q-7 0 -15 164h-270q-68 -263 -131 -263q-2 -12 -61 -12h-839q-117 0 -104 105q-16 170 -26 170h-603l328 2675h40l1 6l-14 170q10 85 129 100h698zM334 2305l-1 -6l270 -3020h879q14 0 136 393q16 33 293 856h6l105 -1249h892l1010 3026h-751
q-523 -1592 -525 -1607h-6l-137 1607h-745q-14 0 -119 -346q-381 -1142 -413 -1261h-11q2 22 -132 1607h-751z" />
    <glyph glyph-name="X" unicode="X" horiz-adv-x="2714" 
d="M1351 2405q140 0 123 -141q5 -1 19 -135h170q81 264 132 264q46 12 84 12h879q96 0 123 -53q-2 -17 6 -47l-69 -176h206l-328 -2675h-212q12 -46 32 -175q-12 -90 -130 -100h-921q-123 0 -109 111q-8 0 -21 164h-170q-81 -263 -132 -263q-25 -12 -67 -12h-915
q-122 6 -110 100l68 175h-129l328 2675h129l1 6q-21 111 -26 170q10 85 129 100h910zM412 2305q5 -57 260 -1513l-631 -1513h956q15 0 140 375q22 47 204 563h6q98 -871 102 -938h967l-260 1513l631 1513h-956q-13 0 -139 -375l-204 -563h-6q-36 331 -108 938h-962z" />
    <glyph glyph-name="Y" unicode="Y" horiz-adv-x="2510" 
d="M1130 2411q84 0 104 -59q62 -214 60 -223h258q13 8 136 241q35 41 110 41h763q117 0 105 -100q-5 -37 -87 -182h241l-328 -2675h-875l-18 -146q-15 -123 -155 -123h-763q-135 0 -119 129l17 140h-699l328 2675h66l1 6q-36 104 -42 182q10 82 117 94h780zM332 2311
l484 -1742l-158 -1285h839l156 1267q3 25 454 880l466 880h-816q-385 -749 -405 -762q2 11 -211 762h-809z" />
    <glyph glyph-name="Z" unicode="Z" horiz-adv-x="2573" 
d="M442 2411h2071q117 0 103 -117l-21 -165h288l-328 -2675h-288l-19 -152q-14 -117 -143 -117h-2047q-129 0 -115 117l19 152h-82l328 2675h82l21 165q14 117 131 117zM407 2311l-92 -751h1279l-1 -6l-1437 -1284l-121 -986h2118l93 757h-1209l1 6q6 0 1357 1208l130 1056
h-2118z" />
    <glyph glyph-name="Euro" unicode="&#x20ac;" horiz-adv-x="2608" 
d="M1024 2417h1197q99 0 158 -100l169 -188h370l-328 -2675h-387q-282 -252 -301 -252q-24 -11 -65 -11h-1232q-87 0 -162 117l-135 146h-428l328 2675h411q309 276 327 276q28 12 78 12zM543 1936l-86 -698h-223l-47 -382h223l-16 -134h-223l-46 -376h211q11 -2 10 -12
l-82 -668q0 -9 329 -376h1279q236 204 428 382l66 539h-756l-19 -158q-2 -12 -14 -12h-499q-12 0 -10 12l34 281q4 12 14 12h956l46 376h-968l16 134h968l47 382h-968l40 322h523l-21 -170h756l67 546q-178 211 -334 381h-1273q-237 -204 -428 -381z" />
    <glyph glyph-name="slash" unicode="/" horiz-adv-x="1728" 
d="M1026 2399h693q123 0 110 -105q-48 -149 -50 -165h259l-328 -2675h-833q-76 -269 -128 -269q-42 -12 -72 -12h-674q-123 0 -110 106l57 175h-53l328 2675h604q69 258 132 258q24 12 65 12zM979 2299q-51 -176 -994 -3026h734l1017 3026h-757z" />
    <glyph glyph-name="at" unicode="@" horiz-adv-x="3400" 
d="M840 2399h2194q88 0 152 -94l160 -176h364l-328 -2675h-358q-303 -269 -314 -269q-43 -12 -73 -12h-1067q-108 0 -163 100l-166 181h-317l-20 -164q-15 -117 -138 -117h-698q-129 0 -113 129l19 152h-94l328 2675h258q297 264 315 264zM377 1924l-325 -2651h756l279 2276
h1484q12 -2 11 -12l-45 -364q-1 -12 -13 -12h-751q-9 -1 -421 -375l-139 -1132q178 -212 334 -381h1132q237 204 429 381l278 2264q-178 212 -336 381h-2252q-9 -1 -421 -375zM2449 415l-50 -410h-410l50 410h410z" />
    <glyph glyph-name="bracketleft" unicode="[" horiz-adv-x="1517" 
d="M884 2851h645q129 0 115 -118l-75 -604h258l-328 -2675h-258l-59 -481q-14 -117 -137 -117h-657q-93 0 -153 100q-289 316 -286 340q-10 23 -4 65l11 93h-76l328 2675h76l26 206q13 107 121 176q354 328 387 328q24 12 66 12zM414 2370l-373 -3039q0 -9 329 -375h716
l92 751h-334l281 2287h334l93 757h-710q-236 -204 -428 -381z" />
    <glyph glyph-name="backslash" unicode="\" horiz-adv-x="1711" 
d="M1173 2387q63 0 68 -258h780l-328 -2675h-229l14 -175q-14 -106 -137 -106h-674q-30 0 -69 12q-52 0 -61 269h-657l328 2675h83q2 16 -9 165q13 105 136 105h693q41 0 62 -12zM376 2299l274 -3026h734q-243 2850 -251 3026h-757z" />
    <glyph glyph-name="bracketright" unicode="]" horiz-adv-x="1552" 
d="M514 2851h645q103 0 199 -147q255 -270 250 -311q2 -31 -1 -58l-26 -206h281l-328 -2675h-281l-11 -93q-12 -93 -121 -165q-356 -328 -380 -328q-24 -12 -66 -12h-657q-123 0 -109 117l59 481h-88l328 2675h88l75 604q14 118 143 118zM467 2751l-93 -757h334l-281 -2287
h-334l-92 -751h715q8 0 422 375l373 3039q-178 211 -334 381h-710z" />
    <glyph glyph-name="underscore" unicode="_" horiz-adv-x="1138" 
d="M208 2129h1240l-328 -2675h-1240z" />
    <glyph glyph-name="less" unicode="&#x3c;" horiz-adv-x="697" 
d="M644 2119l1 10h362l-329 -2675h-362l1 4l-352 12q-36 27 -37 61l25 155q10 44 78 72q20 3 193 14l-291 19q-53 35 -37 108q30 122 53 143q16 17 375 15l-231 13q-38 1 -34 48l35 162q25 60 53 68l102 3l-157 10q-47 23 -20 106l61 177h-65q-36 27 -37 61l38 189
q21 48 66 89q34 8 236 6l-199 11q-43 55 -36 109q17 91 51 131q43 24 286 24l-326 9q-52 13 -50 49l31 135q19 56 54 68h111l-118 4q-38 16 -37 61l25 147q10 44 77 72q76 18 194 14l-261 12q-52 2 -51 28q44 209 66 230q15 16 456 26z" />
    <glyph glyph-name="greater" unicode="&#x3e;" horiz-adv-x="697" 
d="M243 -536l-1 -10h-362l328 2675h362v-4l351 -12q37 -27 38 -61l-25 -155q-10 -44 -78 -72q-20 -3 -194 -14l292 -19q53 -35 37 -108q-30 -122 -53 -143q-16 -17 -376 -15l232 -13q38 -1 34 -48l-35 -162q-25 -60 -53 -68l-103 -3l158 -10q47 -23 20 -106l-62 -177h65
q37 -27 38 -61l-38 -189q-21 -48 -66 -89q-34 -8 -236 -6l199 -11q43 -55 36 -109q-17 -91 -51 -131q-43 -24 -286 -24l326 -9q52 -13 50 -49l-31 -135q-19 -56 -54 -68h-111l118 -4q38 -16 37 -61l-25 -147q-10 -44 -78 -72q-75 -18 -193 -14l261 -12q52 -2 51 -28
q-44 -209 -67 -230q-15 -16 -455 -26z" />
    </font>
</defs>
</svg>
